<svg width="26" height="28" viewBox="0 0 26 28" fill="none" xmlns="http://www.w3.org/2000/svg">
<path d="M24.6325 11.8237L23 11.2788V5C23 4.46957 22.7893 3.96086 22.4142 3.58579C22.0391 3.21071 21.5304 3 21 3H14V1C14 0.734784 13.8946 0.48043 13.7071 0.292893C13.5196 0.105357 13.2652 0 13 0C12.7348 0 12.4804 0.105357 12.2929 0.292893C12.1054 0.48043 12 0.734784 12 1V3H5C4.46957 3 3.96086 3.21071 3.58579 3.58579C3.21071 3.96086 3 4.46957 3 5V11.2788L1.3675 11.8237C0.969262 11.9565 0.622893 12.2112 0.377459 12.5518C0.132024 12.8923 -3.11057e-05 13.3015 5.49589e-09 13.7212V17C5.49589e-09 24.6925 12.2362 27.84 12.7575 27.97C12.9167 28.0098 13.0833 28.0098 13.2425 27.97C13.7638 27.84 26 24.6925 26 17V13.7212C26 13.3015 25.868 12.8923 25.6225 12.5518C25.3771 12.2112 25.0307 11.9565 24.6325 11.8237ZM5 5H21V10.6125L13.3162 8.05125C13.111 7.98282 12.889 7.98282 12.6838 8.05125L5 10.6125V5ZM24 17C24 20.1137 21.04 22.375 18.5562 23.7288C16.7878 24.6671 14.9254 25.4167 13 25.965C11.0862 25.4225 9.23471 24.68 7.47625 23.75C2.95 21.2938 2 18.7237 2 17V13.7212L12 10.3875V19C12 19.2652 12.1054 19.5196 12.2929 19.7071C12.4804 19.8946 12.7348 20 13 20C13.2652 20 13.5196 19.8946 13.7071 19.7071C13.8946 19.5196 14 19.2652 14 19V10.3875L24 13.7212V17Z" fill="white" fill-opacity="0.05"/>
</svg>
