<svg width="30" height="22" viewBox="0 0 30 22" fill="none" xmlns="http://www.w3.org/2000/svg">
<path d="M28.55 3.8312L15.275 0.0387029C15.1398 -4.19803e-05 14.998 -0.00983847 14.8588 0.00995295L1.7175 1.88745C1.24169 1.95743 0.806747 2.1957 0.491616 2.55899C0.176485 2.92229 0.00205917 3.38653 0 3.86745V18.1325C0.00205917 18.6134 0.176485 19.0776 0.491616 19.4409C0.806747 19.8042 1.24169 20.0425 1.7175 20.1125L14.8588 21.9875C14.9055 21.9948 14.9527 21.9989 15 22C15.093 22.0001 15.1856 21.9871 15.275 21.9612L28.55 18.1687C28.9664 18.0481 29.3325 17.7961 29.5939 17.4503C29.8552 17.1045 29.9977 16.6834 30 16.25V5.74995C29.9977 5.3165 29.8552 4.89542 29.5939 4.5496C29.3325 4.20378 28.9664 3.95177 28.55 3.8312ZM11 9.99995H9V2.86745L14 2.15245V19.8475L9 19.1325V12H11C11.2652 12 11.5196 11.8946 11.7071 11.7071C11.8946 11.5195 12 11.2652 12 11C12 10.7347 11.8946 10.4804 11.7071 10.2928C11.5196 10.1053 11.2652 9.99995 11 9.99995ZM2 3.86745L7 3.15245V9.99995H5C4.73478 9.99995 4.48043 10.1053 4.29289 10.2928C4.10536 10.4804 4 10.7347 4 11C4 11.2652 4.10536 11.5195 4.29289 11.7071C4.48043 11.8946 4.73478 12 5 12H7V18.8475L2 18.1325V3.86745ZM16 19.6737V2.3262L28 5.74995V16.25L16 19.6737Z" fill="white" fill-opacity="0.05"/>
</svg>
