<svg width="32" height="32" viewBox="0 0 32 32" fill="none" xmlns="http://www.w3.org/2000/svg">
<path d="M28.7913 17.6324C28.4191 17.3461 27.986 17.1495 27.5255 17.0578C27.0651 16.9661 26.5897 16.9818 26.1362 17.1037L20.9062 18.3062C21.0279 17.7922 21.0317 17.2573 20.9172 16.7416C20.8028 16.226 20.5731 15.7429 20.2454 15.3286C19.9177 14.9143 19.5005 14.5796 19.0251 14.3495C18.5496 14.1194 18.0282 13.9999 17.5 13.9999H11.2425C10.717 13.9986 10.1964 14.1014 9.71092 14.3025C9.22539 14.5035 8.78451 14.7988 8.41375 15.1712L5.58625 17.9999H2C1.46957 17.9999 0.960859 18.2106 0.585786 18.5857C0.210714 18.9608 0 19.4695 0 19.9999L0 24.9999C0 25.5304 0.210714 26.0391 0.585786 26.4141C0.960859 26.7892 1.46957 26.9999 2 26.9999H15C15.0818 27 15.1632 26.9899 15.2425 26.9699L23.2425 24.9699C23.2938 24.9576 23.344 24.9409 23.3925 24.9199L28.25 22.8524L28.305 22.8274C28.772 22.5941 29.1718 22.2457 29.4669 21.8151C29.7621 21.3845 29.9427 20.8859 29.9918 20.3662C30.041 19.8465 29.957 19.3229 29.7478 18.8446C29.5387 18.3663 29.2112 17.9492 28.7962 17.6324H28.7913ZM5 24.9999H2V19.9999H5V24.9999ZM27.4287 21.0262L22.6787 23.0487L14.875 24.9999H7V19.4137L9.82875 16.5862C10.0138 16.3997 10.2341 16.2518 10.4768 16.1511C10.7195 16.0505 10.9798 15.9991 11.2425 15.9999H17.5C17.8978 15.9999 18.2794 16.158 18.5607 16.4393C18.842 16.7206 19 17.1021 19 17.4999C19 17.8978 18.842 18.2793 18.5607 18.5606C18.2794 18.8419 17.8978 18.9999 17.5 18.9999H14C13.7348 18.9999 13.4804 19.1053 13.2929 19.2928C13.1054 19.4804 13 19.7347 13 19.9999C13 20.2651 13.1054 20.5195 13.2929 20.707C13.4804 20.8946 13.7348 20.9999 14 20.9999H18C18.0753 20.9997 18.1503 20.9913 18.2237 20.9749L26.5987 19.0487L26.6375 19.0387C26.8932 18.9677 27.166 18.9938 27.4036 19.1119C27.6412 19.23 27.8267 19.4318 27.9245 19.6785C28.0222 19.9252 28.0253 20.1993 27.9331 20.4481C27.8409 20.6969 27.6599 20.9028 27.425 21.0262H27.4287ZM19.2925 7.70743C19.1995 7.61456 19.1258 7.50427 19.0754 7.38287C19.0251 7.26147 18.9992 7.13135 18.9992 6.99993C18.9992 6.86852 19.0251 6.73839 19.0754 6.61699C19.1258 6.49559 19.1995 6.38531 19.2925 6.29243L23.2925 2.29243C23.3854 2.19946 23.4957 2.1257 23.6171 2.07537C23.7385 2.02505 23.8686 1.99915 24 1.99915C24.1314 1.99915 24.2615 2.02505 24.3829 2.07537C24.5043 2.1257 24.6146 2.19946 24.7075 2.29243L28.7075 6.29243C28.8004 6.38534 28.8741 6.49564 28.9244 6.61704C28.9747 6.73843 29.0006 6.86854 29.0006 6.99993C29.0006 7.13133 28.9747 7.26144 28.9244 7.38283C28.8741 7.50422 28.8004 7.61452 28.7075 7.70743C28.6146 7.80034 28.5043 7.87404 28.3829 7.92433C28.2615 7.97461 28.1314 8.00049 28 8.00049C27.8686 8.00049 27.7385 7.97461 27.6171 7.92433C27.4957 7.87404 27.3854 7.80034 27.2925 7.70743L25 5.41368V12.9999C25 13.2651 24.8946 13.5195 24.7071 13.707C24.5196 13.8946 24.2652 13.9999 24 13.9999C23.7348 13.9999 23.4804 13.8946 23.2929 13.707C23.1054 13.5195 23 13.2651 23 12.9999V5.41368L20.7075 7.70743C20.6146 7.80041 20.5043 7.87417 20.3829 7.92449C20.2615 7.97482 20.1314 8.00072 20 8.00072C19.8686 8.00072 19.7385 7.97482 19.6171 7.92449C19.4957 7.87417 19.3854 7.80041 19.2925 7.70743Z" fill="#38BDF8"/>
</svg>
