<svg width="30" height="22" viewBox="0 0 30 22" fill="none" xmlns="http://www.w3.org/2000/svg">
<path d="M26.9982 21C26.9982 21.2652 26.8928 21.5196 26.7053 21.7071C26.5178 21.8946 26.2634 22 25.9982 22H7.99819C7.73297 22 7.47862 21.8946 7.29108 21.7071C7.10355 21.5196 6.99819 21.2652 6.99819 21C6.99819 20.7348 7.10355 20.4804 7.29108 20.2929C7.47862 20.1054 7.73297 20 7.99819 20H25.9982C26.2634 20 26.5178 20.1054 26.7053 20.2929C26.8928 20.4804 26.9982 20.7348 26.9982 21ZM29.9982 11V14C29.9982 14.2652 29.8928 14.5196 29.7053 14.7071C29.5178 14.8946 29.2634 15 28.9982 15H6.63194C5.55541 15.0049 4.5064 14.6601 3.64276 14.0174C2.77912 13.3747 2.14759 12.4689 1.84319 11.4363L0.0844391 5.575C-0.00516292 5.2765 -0.0237649 4.96119 0.030117 4.65422C0.083999 4.34726 0.208873 4.05713 0.394779 3.80699C0.580684 3.55685 0.822475 3.35362 1.10086 3.21351C1.37925 3.0734 1.68653 3.00028 1.99819 3H2.99819C3.26305 3.00012 3.51705 3.10532 3.70444 3.2925L6.41319 6H9.22444L8.09944 2.6325C7.99918 2.33175 7.97185 2.01147 8.01971 1.69807C8.06757 1.38468 8.18925 1.08715 8.3747 0.830031C8.56016 0.572909 8.80408 0.363557 9.08635 0.219241C9.36863 0.0749249 9.68116 -0.000221174 9.99819 4.88967e-07H10.9982C11.1295 -0.000102806 11.2596 0.0256758 11.381 0.0758639C11.5024 0.126052 11.6128 0.199666 11.7057 0.2925L17.4132 6H24.9982C26.3243 6 27.596 6.52678 28.5337 7.46447C29.4714 8.40215 29.9982 9.67392 29.9982 11ZM27.9982 11C27.9982 10.2044 27.6821 9.44129 27.1195 8.87868C26.5569 8.31607 25.7938 8 24.9982 8H16.9982C16.7333 7.99988 16.4793 7.89468 16.2919 7.7075L10.5844 2H9.99819L11.5594 6.68375C11.6095 6.83398 11.6232 6.99395 11.5994 7.1505C11.5755 7.30705 11.5149 7.4557 11.4224 7.58422C11.3298 7.71274 11.2081 7.81746 11.0672 7.88974C10.9263 7.96202 10.7703 7.99981 10.6119 8H5.99819C5.86683 8.0001 5.73673 7.97432 5.61534 7.92414C5.49394 7.87395 5.38363 7.80034 5.29069 7.7075L2.58444 5H1.99819L3.75694 10.8625C3.9398 11.4822 4.31904 12.0257 4.83756 12.4113C5.35609 12.7968 5.98582 13.0034 6.63194 13H27.9982V11Z" fill="white" fill-opacity="0.05"/>
</svg>
