<svg width="32" height="32" viewBox="0 0 32 32" fill="none" xmlns="http://www.w3.org/2000/svg">
<path d="M28.8638 21.5001C28.9958 21.7293 29.0317 22.0015 28.9635 22.2571C28.8954 22.5127 28.7287 22.7309 28.5 22.8639L16.5 29.8639C16.3471 29.9531 16.1733 30 15.9963 30C15.8192 30 15.6454 29.9531 15.4925 29.8639L3.4925 22.8639C3.26712 22.7285 3.10415 22.5097 3.03888 22.255C2.9736 22.0003 3.01128 21.7301 3.14375 21.503C3.27622 21.2758 3.49282 21.11 3.74666 21.0414C4.0005 20.9728 4.27114 21.0069 4.5 21.1364L16 27.8426L27.5 21.1364C27.7292 21.0043 28.0014 20.9684 28.257 21.0366C28.5126 21.1048 28.7308 21.2715 28.8638 21.5001ZM27.5 15.1364L16 21.8426L4.5 15.1364C4.27231 15.023 4.00997 15.0007 3.76638 15.0739C3.5228 15.1472 3.31627 15.3105 3.18884 15.5306C3.06141 15.7507 3.02266 16.0111 3.08046 16.2588C3.13827 16.5065 3.28829 16.7229 3.5 16.8639L15.5 23.8639C15.6529 23.9531 15.8267 24 16.0037 24C16.1808 24 16.3546 23.9531 16.5075 23.8639L28.5075 16.8639C28.6228 16.7987 28.7239 16.7112 28.8051 16.6066C28.8863 16.502 28.9459 16.3823 28.9804 16.2545C29.015 16.1266 29.0238 15.9932 29.0064 15.8619C28.9889 15.7306 28.9456 15.6041 28.8789 15.4897C28.8122 15.3754 28.7234 15.2754 28.6177 15.1955C28.5121 15.1157 28.3916 15.0577 28.2633 15.0248C28.135 14.992 28.0015 14.9849 27.8705 15.0041C27.7394 15.0232 27.6135 15.0682 27.5 15.1364ZM3 10.0001C3.0004 9.82499 3.04679 9.65302 3.13454 9.50144C3.22229 9.34985 3.34831 9.22397 3.5 9.13639L15.5 2.13639C15.6529 2.04723 15.8267 2.00024 16.0037 2.00024C16.1808 2.00024 16.3546 2.04723 16.5075 2.13639L28.5075 9.13639C28.6585 9.22446 28.7837 9.35056 28.8707 9.50211C28.9578 9.65366 29.0036 9.82538 29.0036 10.0001C29.0036 10.1749 28.9578 10.3466 28.8707 10.4982C28.7837 10.6497 28.6585 10.7758 28.5075 10.8639L16.5075 17.8639C16.3546 17.9531 16.1808 18 16.0037 18C15.8267 18 15.6529 17.9531 15.5 17.8639L3.5 10.8639C3.34831 10.7763 3.22229 10.6504 3.13454 10.4989C3.04679 10.3473 3.0004 10.1753 3 10.0001ZM5.985 10.0001L16 15.8426L26.015 10.0001L16 4.15764L5.985 10.0001Z" fill="#38BDF8"/>
</svg>
