<svg width="24" height="28" viewBox="0 0 24 28" fill="none" xmlns="http://www.w3.org/2000/svg">
<path d="M23.9647 11.7375L21.166 1.47375C21.0505 1.05039 20.799 0.676757 20.4502 0.410437C20.1015 0.144118 19.6748 -0.000104489 19.236 5.67998e-08H4.76346C4.32464 -0.000104489 3.89796 0.144118 3.54919 0.410437C3.20042 0.676757 2.94892 1.05039 2.83346 1.47375L0.0347084 11.7375C-0.0115695 11.9094 -0.0115695 12.0906 0.0347084 12.2625L2.83346 22.5263C2.94892 22.9496 3.20042 23.3232 3.54919 23.5896C3.89796 23.8559 4.32464 24.0001 4.76346 24H5.99971L4.19971 26.4C4.12092 26.5051 4.06359 26.6246 4.03099 26.7518C3.9984 26.879 3.99119 27.0114 4.00976 27.1414C4.02833 27.2714 4.07233 27.3965 4.13923 27.5095C4.20614 27.6225 4.29465 27.7212 4.39971 27.8C4.50477 27.8788 4.62431 27.9361 4.75153 27.9687C4.87874 28.0013 5.01113 28.0085 5.14113 27.99C5.27113 27.9714 5.3962 27.9274 5.5092 27.8605C5.6222 27.7936 5.72092 27.7051 5.79971 27.6L8.49971 24H15.4997L18.1997 27.6C18.3588 27.8122 18.5957 27.9524 18.8583 27.99C19.1208 28.0275 19.3875 27.9591 19.5997 27.8C19.8119 27.6409 19.9522 27.404 19.9897 27.1414C20.0272 26.8789 19.9588 26.6122 19.7997 26.4L17.9997 24H19.236C19.6748 24.0001 20.1015 23.8559 20.4502 23.5896C20.799 23.3232 21.0505 22.9496 21.166 22.5263L23.9647 12.2625C24.011 12.0906 24.011 11.9094 23.9647 11.7375ZM4.76346 2H19.236L21.7497 11.2113L11.9997 12.9838L2.24971 11.2113L4.76346 2ZM2.38846 13.2675L10.9997 14.835V22H4.76346L2.38846 13.2675ZM19.236 22H12.9997V14.835L21.6172 13.2675L19.236 22ZM6.99971 8C6.99971 7.73478 7.10507 7.48043 7.2926 7.29289C7.48014 7.10536 7.73449 7 7.99971 7H15.9997C16.2649 7 16.5193 7.10536 16.7068 7.29289C16.8944 7.48043 16.9997 7.73478 16.9997 8C16.9997 8.26522 16.8944 8.51957 16.7068 8.70711C16.5193 8.89464 16.2649 9 15.9997 9H7.99971C7.73449 9 7.48014 8.89464 7.2926 8.70711C7.10507 8.51957 6.99971 8.26522 6.99971 8Z" fill="white" fill-opacity="0.05"/>
</svg>
