<svg width="32" height="22" viewBox="0 0 32 22" fill="none" xmlns="http://www.w3.org/2000/svg">
<path d="M28 7.1V7C27.998 5.14409 27.2599 3.36477 25.9476 2.05245C24.6352 0.740121 22.8559 0.00198528 21 0H20C19.4696 0 18.9609 0.210714 18.5858 0.585786C18.2107 0.960859 18 1.46957 18 2V17H16V4C16 3.73478 15.8946 3.48043 15.7071 3.29289C15.5196 3.10536 15.2652 3 15 3H2C1.46957 3 0.960859 3.21071 0.585786 3.58579C0.210714 3.96086 0 4.46957 0 5V18C0.000913299 18.8121 0.248994 19.6047 0.71126 20.2724C1.17353 20.9401 1.82808 21.4513 2.58789 21.738C3.3477 22.0246 4.17678 22.0733 4.9649 21.8774C5.75302 21.6815 6.46285 21.2503 7 20.6413C7.48014 21.1867 8.0998 21.591 8.79242 21.8109C9.48504 22.0307 10.2245 22.0577 10.9313 21.889C11.6381 21.7202 12.2856 21.3621 12.8042 20.8532C13.3228 20.3442 13.693 19.7035 13.875 19H24.125C24.3668 19.9445 24.9453 20.7681 25.7516 21.3162C26.558 21.8642 27.5367 22.0988 28.5039 21.976C29.4711 21.8532 30.3601 21.3814 31.0039 20.6492C31.6477 19.917 32.0019 18.9749 32 18V12C31.9986 10.8478 31.6 9.73128 30.8713 8.8387C30.1427 7.94613 29.1286 7.33205 28 7.1ZM20 2H21C22.3261 2 23.5979 2.52678 24.5355 3.46447C25.4732 4.40215 26 5.67392 26 7V8C26 8.26522 26.1054 8.51957 26.2929 8.70711C26.4804 8.89464 26.7348 9 27 9C27.7956 9 28.5587 9.31607 29.1213 9.87868C29.6839 10.4413 30 11.2044 30 12V14.5387C29.3929 14.1851 28.7026 13.9991 28 14C27.1132 14.0008 26.2517 14.2958 25.5505 14.8387C24.8493 15.3815 24.3479 16.1417 24.125 17H20V2ZM14 5V17H13.875C13.693 16.2965 13.3228 15.6558 12.8042 15.1468C12.2856 14.6379 11.6381 14.2798 10.9313 14.111C10.2245 13.9423 9.48504 13.9693 8.79242 14.1891C8.0998 14.409 7.48014 14.8133 7 15.3587C6.39074 14.6638 5.559 14.2021 4.64698 14.0525C3.73497 13.9029 2.79932 14.0748 2 14.5387V5H14ZM4 20C3.60444 20 3.21776 19.8827 2.88886 19.6629C2.55996 19.4432 2.30362 19.1308 2.15224 18.7654C2.00087 18.3999 1.96126 17.9978 2.03843 17.6098C2.1156 17.2219 2.30608 16.8655 2.58579 16.5858C2.86549 16.3061 3.22186 16.1156 3.60982 16.0384C3.99778 15.9613 4.39991 16.0009 4.76537 16.1522C5.13082 16.3036 5.44318 16.56 5.66294 16.8889C5.8827 17.2178 6 17.6044 6 18C6 18.5304 5.78929 19.0391 5.41421 19.4142C5.03914 19.7893 4.53043 20 4 20ZM10 20C9.60444 20 9.21776 19.8827 8.88886 19.6629C8.55996 19.4432 8.30362 19.1308 8.15224 18.7654C8.00087 18.3999 7.96126 17.9978 8.03843 17.6098C8.1156 17.2219 8.30608 16.8655 8.58579 16.5858C8.86549 16.3061 9.22186 16.1156 9.60982 16.0384C9.99778 15.9613 10.3999 16.0009 10.7654 16.1522C11.1308 16.3036 11.4432 16.56 11.6629 16.8889C11.8827 17.2178 12 17.6044 12 18C12 18.5304 11.7893 19.0391 11.4142 19.4142C11.0391 19.7893 10.5304 20 10 20ZM28 20C27.6044 20 27.2178 19.8827 26.8889 19.6629C26.56 19.4432 26.3036 19.1308 26.1522 18.7654C26.0009 18.3999 25.9613 17.9978 26.0384 17.6098C26.1156 17.2219 26.3061 16.8655 26.5858 16.5858C26.8655 16.3061 27.2219 16.1156 27.6098 16.0384C27.9978 15.9613 28.3999 16.0009 28.7654 16.1522C29.1308 16.3036 29.4432 16.56 29.6629 16.8889C29.8827 17.2178 30 17.6044 30 18C30 18.5304 29.7893 19.0391 29.4142 19.4142C29.0391 19.7893 28.5304 20 28 20Z" fill="white" fill-opacity="0.05"/>
</svg>
