<svg width="58" height="25" viewBox="0 0 58 25" fill="none" xmlns="http://www.w3.org/2000/svg">
<path fill-rule="evenodd" clip-rule="evenodd" d="M26.6306 3.70261H29.7856V0.509264H26.6306V3.70261ZM26.6306 18.7296H29.7856V4.95481H26.6306V18.7296ZM51.4376 15.8475C49.0927 15.8475 48.6173 14.9706 48.6173 11.7497C48.6173 8.52761 49.0927 7.53827 51.4376 7.53827C54.1464 7.53827 54.8727 8.30209 54.8727 11.7497C54.8727 15.1968 54.1464 15.8475 51.4376 15.8475ZM55.151 4.95457V6.04088C54.0916 5.0807 52.36 4.7125 50.9075 4.7125C46.2164 4.7125 45.463 7.56698 45.463 11.7497C45.463 15.0563 45.7705 18.7296 50.9354 18.7296C52.2476 18.7296 53.867 18.4186 54.8445 17.5139C54.8445 18.2207 54.8727 19.2153 54.7895 19.9217C54.621 21.2214 53.3089 21.7864 51.4939 21.7864C49.7346 21.7864 49.1785 21.2844 49.1785 20.295H45.7423C45.7423 23.8002 48.8412 24.5 51.577 24.5C54.0915 24.5 57.3858 23.8219 57.8885 20.5435C58 19.7799 58 18.5319 58 17.2601V4.95457H55.151ZM38.5061 4.7125C36.5798 4.7125 35.3515 5.33427 34.5691 6.04088V4.95457H31.8328V18.7296H34.9877V12.3145C34.9877 9.91278 34.7369 7.53827 38.1429 7.53827C40.8805 7.53827 40.6284 8.81033 40.6284 11.4667V18.7296H43.7841V11.2123C43.7841 8.21727 44.0076 4.7125 38.5061 4.7125ZM20.7061 4.7125C19.1137 4.7125 17.8577 5.2214 16.9637 6.18292V4.95457H14.2279V18.7296H17.383V12.7386C17.383 11.6648 17.3273 10.1387 17.6909 9.14962C18.0251 8.21727 18.8354 7.51066 20.1476 7.51066C21.4606 7.51066 21.9809 7.79316 21.9809 9.06501H25.1176C25.1176 6.04088 23.6383 4.7125 20.7061 4.7125ZM6.59015 16.0733C3.88119 16.0733 3.09919 15.3103 3.09919 11.8627C3.09919 8.41385 3.88119 7.65158 6.59015 7.65158C8.9355 7.65158 9.43769 8.64069 9.43769 11.8627C9.43769 15.0843 8.9355 16.0733 6.59015 16.0733ZM7.28769 4.7125C5.80815 4.7125 4.18805 4.88257 3.15505 5.95673V0.5H0V18.7296H2.84734V17.6274C3.68521 18.3897 4.9707 18.9549 6.78526 18.9549C12.2298 18.9549 12.5923 15.2253 12.5923 11.8627C12.5923 7.67985 11.9509 4.7125 7.28769 4.7125Z" fill="white"/>
</svg>
