<svg width="134" height="19" viewBox="0 0 134 19" fill="none" xmlns="http://www.w3.org/2000/svg">
<g clip-path="url(#clip0_134_100)">
<path d="M41.1174 12.0197C40.9174 12.9732 40.5097 13.8883 39.8942 14.7649C39.2941 15.6262 38.4865 16.3337 37.471 16.8874C36.4709 17.4411 35.2939 17.7179 33.94 17.7179C32.4167 17.7179 31.0706 17.3719 29.9012 16.6798C28.7319 15.9723 27.8165 14.9726 27.1549 13.6807C26.5087 12.3733 26.1855 10.8431 26.1855 9.08979C26.1855 7.35186 26.5087 5.83694 27.1549 4.54503C27.8165 3.25312 28.7319 2.26111 29.9012 1.56903C31.0706 0.86155 32.4167 0.507812 33.94 0.507812C35.1554 0.507812 36.2325 0.73851 37.1709 1.19991C38.1249 1.64593 38.9019 2.21498 39.5019 2.90707C40.1173 3.59917 40.5557 4.32202 40.8174 5.07564L38.3479 5.62931C38.0095 4.75266 37.4632 4.03749 36.7094 3.48381C35.9555 2.91476 35.0323 2.63024 33.94 2.63024C32.3552 2.63024 31.0936 3.20698 30.1551 4.36047C29.232 5.49858 28.7704 7.07502 28.7704 9.08979C28.7704 11.1353 29.232 12.7348 30.1551 13.8883C31.0782 15.0265 32.3398 15.5954 33.94 15.5954C35.217 15.5954 36.2401 15.2187 37.0094 14.4651C37.7787 13.7114 38.3018 12.7656 38.5787 11.6274L41.1174 12.0197Z" fill="white"/>
<path d="M44.474 7.01353H44.5663C44.8894 6.39834 45.3663 5.89081 45.9972 5.49093C46.6279 5.09105 47.3588 4.89111 48.1897 4.89111C48.5743 4.89111 48.9358 4.92956 49.2743 5.00646V7.26731C48.8435 7.20579 48.4435 7.17502 48.0743 7.17502C47.0126 7.17502 46.1665 7.47493 45.5356 8.07475C44.9048 8.65919 44.5894 9.59735 44.5894 10.8893V17.3488H42.2354V5.16795H44.474V7.01353Z" fill="white"/>
<path d="M60.3566 13.7961C60.0181 14.8573 59.4027 15.7647 58.5104 16.5183C57.618 17.2566 56.3563 17.6256 54.7255 17.6256C53.6023 17.6256 52.6022 17.3642 51.7252 16.8413C50.8637 16.303 50.1944 15.5571 49.7175 14.6035C49.2405 13.6345 49.002 12.5272 49.002 11.2814C49.002 10.0203 49.2327 8.90526 49.6943 7.93633C50.1713 6.9674 50.8328 6.22148 51.6791 5.69855C52.5407 5.16026 53.5484 4.89111 54.7024 4.89111C55.8255 4.89111 56.8179 5.14488 57.6795 5.65242C58.5564 6.14458 59.2335 6.85974 59.7104 7.79791C60.2027 8.72071 60.4489 9.82036 60.4489 11.0969C60.4489 11.4199 60.4412 11.666 60.4258 11.8351H51.3791C51.4098 12.9732 51.7252 13.9038 52.3252 14.6266C52.9407 15.3494 53.7407 15.7109 54.7255 15.7109C55.664 15.7109 56.3871 15.4956 56.8948 15.0649C57.4026 14.6189 57.7641 14.1037 57.9795 13.5192L60.3566 13.7961ZM54.7024 6.80591C53.7484 6.80591 52.9869 7.1212 52.4176 7.75178C51.8637 8.36696 51.5329 9.12827 51.4252 10.0357H58.0488C57.941 9.11289 57.6025 8.3439 57.0333 7.7287C56.464 7.11351 55.687 6.80591 54.7024 6.80591Z" fill="white"/>
<path d="M69.3191 17.3488C69.2114 17.2412 69.119 17.0412 69.0421 16.749C68.9806 16.4568 68.9498 16.1184 68.9498 15.7339C68.5805 16.3645 68.0036 16.8413 67.2189 17.1643C66.4496 17.4719 65.6573 17.6256 64.8418 17.6256C64.1187 17.6256 63.4495 17.4795 62.8341 17.1874C62.2186 16.8797 61.7263 16.4568 61.357 15.9185C61.0032 15.3648 60.8262 14.7189 60.8262 13.9806C60.8262 12.7348 61.257 11.8197 62.1185 11.2353C62.9802 10.6355 64.2803 10.2433 66.0188 10.0587C67.142 9.9511 67.9036 9.78961 68.3037 9.57429C68.7191 9.35896 68.9267 9.05137 68.9267 8.6515C68.9267 7.43649 68.0729 6.82898 66.365 6.82898C65.7035 6.82898 65.1034 7.00584 64.5649 7.35959C64.0264 7.69794 63.6494 8.20548 63.4341 8.88219L61.2877 8.37465C61.5493 7.29806 62.1494 6.45218 63.0879 5.83698C64.0264 5.2064 65.1495 4.89111 66.4573 4.89111C68.1189 4.89111 69.3345 5.23716 70.1037 5.92925C70.8884 6.60596 71.2808 7.498 71.2808 8.60535V14.7189C71.2808 15.4879 71.2961 16.0569 71.3269 16.426C71.373 16.7797 71.4654 17.0874 71.6038 17.3488H69.3191ZM68.9267 11.0738C68.7575 11.2583 68.3959 11.4122 67.8421 11.5352C67.3036 11.6429 66.6112 11.7505 65.765 11.8582C65.0419 11.9505 64.4341 12.1735 63.9418 12.5272C63.4648 12.8655 63.2263 13.3501 63.2263 13.9806C63.2263 14.565 63.411 15.0111 63.7802 15.3186C64.1495 15.6109 64.6572 15.757 65.3034 15.757C65.8881 15.757 66.4574 15.6494 67.0112 15.4341C67.5651 15.2033 68.019 14.8496 68.3729 14.3728C68.7421 13.8807 68.9267 13.2732 68.9267 12.5503V11.0738Z" fill="white"/>
<path d="M78.669 15.3186V17.3487C78.3305 17.3795 77.7535 17.3949 76.9382 17.3949C75.7995 17.3949 74.9842 17.2103 74.4918 16.8412C74.0148 16.4721 73.7763 15.7646 73.7763 14.7188V6.94425H71.7686V5.16787H73.7763V1.73047H76.1304V5.16787H78.8075V6.94425H76.1304V14.0959C76.1304 14.6342 76.2304 14.9802 76.4304 15.134C76.6304 15.2879 76.992 15.3648 77.515 15.3648L78.669 15.3186Z" fill="white"/>
<path d="M89.9796 13.7961C89.6412 14.8573 89.0257 15.7647 88.1333 16.5183C87.2409 17.2566 85.9793 17.6256 84.3484 17.6256C83.2252 17.6256 82.2253 17.3642 81.3483 16.8413C80.4866 16.303 79.8174 15.5571 79.3404 14.6035C78.8635 13.6345 78.625 12.5272 78.625 11.2814C78.625 10.0203 78.8558 8.90526 79.3174 7.93633C79.7943 6.9674 80.4559 6.22148 81.3021 5.69855C82.1637 5.16026 83.1715 4.89111 84.3254 4.89111C85.4485 4.89111 86.4409 5.14488 87.3025 5.65242C88.1795 6.14458 88.8564 6.85974 89.3334 7.79791C89.8258 8.72071 90.0719 9.82036 90.0719 11.0969C90.0719 11.4199 90.0642 11.666 90.0488 11.8351H81.0021C81.0329 12.9732 81.3483 13.9038 81.9483 14.6266C82.5637 15.3494 83.3638 15.7109 84.3484 15.7109C85.2869 15.7109 86.0101 15.4956 86.5178 15.0649C87.0255 14.6189 87.3871 14.1037 87.6025 13.5192L89.9796 13.7961ZM84.3254 6.80591C83.3715 6.80591 82.6099 7.1212 82.0406 7.75178C81.4867 8.36696 81.156 9.12827 81.0482 10.0357H87.6717C87.5641 9.11289 87.2256 8.3439 86.6563 7.7287C86.0871 7.11351 85.3101 6.80591 84.3254 6.80591Z" fill="white"/>
<path d="M100.581 4.54506H100.488L97.3956 17.3488H94.465L90.2646 0.876953H92.8725L95.8958 14.0037H95.9882L99.1038 0.876953H101.92L105.035 14.0037H105.127L108.173 0.876953H110.804L106.558 17.3488H103.72L100.581 4.54506Z" fill="white"/>
<path d="M121.096 13.7961C120.756 14.8573 120.141 15.7647 119.248 16.5183C118.357 17.2566 117.095 17.6256 115.464 17.6256C114.341 17.6256 113.341 17.3642 112.464 16.8413C111.602 16.303 110.933 15.5571 110.456 14.6035C109.979 13.6345 109.74 12.5272 109.74 11.2814C109.74 10.0203 109.972 8.90526 110.432 7.93633C110.91 6.9674 111.571 6.22148 112.417 5.69855C113.279 5.16026 114.287 4.89111 115.441 4.89111C116.564 4.89111 117.557 5.14488 118.418 5.65242C119.295 6.14458 119.972 6.85974 120.449 7.79791C120.941 8.72071 121.187 9.82036 121.187 11.0969C121.187 11.4199 121.179 11.666 121.164 11.8351H112.118C112.148 12.9732 112.464 13.9038 113.064 14.6266C113.679 15.3494 114.479 15.7109 115.464 15.7109C116.403 15.7109 117.126 15.4956 117.634 15.0649C118.141 14.6189 118.502 14.1037 118.718 13.5192L121.096 13.7961ZM115.441 6.80591C114.487 6.80591 113.726 7.1212 113.156 7.75178C112.602 8.36696 112.272 9.12827 112.164 10.0357H118.788C118.68 9.11289 118.341 8.3439 117.772 7.7287C117.203 7.11351 116.426 6.80591 115.441 6.80591Z" fill="white"/>
<path d="M128.373 4.89084C129.449 4.89084 130.404 5.15999 131.235 5.69828C132.08 6.22121 132.735 6.96713 133.197 7.93606C133.673 8.88961 133.912 9.99696 133.912 11.2581C133.912 12.5192 133.673 13.6343 133.197 14.6033C132.735 15.5568 132.08 16.3027 131.235 16.8411C130.404 17.3639 129.449 17.6254 128.373 17.6254C127.511 17.6254 126.741 17.4639 126.065 17.1409C125.403 16.8025 124.911 16.3489 124.588 15.7798H124.495V17.3485H122.257V0.645996H124.611V6.59801H124.704C125.042 6.07509 125.527 5.65984 126.157 5.35224C126.803 5.04464 127.542 4.89084 128.373 4.89084ZM127.957 15.7106C129.049 15.7106 129.911 15.3184 130.542 14.5341C131.189 13.7343 131.512 12.6423 131.512 11.2581C131.512 9.87393 131.189 8.78964 130.542 8.00527C129.911 7.20552 129.049 6.80564 127.957 6.80564C126.896 6.80564 126.042 7.20552 125.396 8.00527C124.765 8.80502 124.449 9.8893 124.449 11.2581C124.449 12.6269 124.765 13.7112 125.396 14.511C126.042 15.3107 126.896 15.7106 127.957 15.7106Z" fill="white"/>
<path fill-rule="evenodd" clip-rule="evenodd" d="M12.6367 0.558708C14.3114 0.737324 15.9024 1.38103 17.2292 2.41679L15.6631 4.41688C14.7107 3.67342 13.5688 3.21138 12.3667 3.08317C11.1647 2.95496 9.95066 3.16572 8.86251 3.69155C8.54429 3.84531 8.24057 4.02422 7.95393 4.22594C7.28816 3.78661 6.56175 3.34542 5.93605 3.03307C5.80627 2.96828 5.68773 2.9191 5.5795 2.88351C6.22523 2.29033 6.95739 1.79163 7.75486 1.40628C9.27083 0.673721 10.9621 0.380093 12.6367 0.558708ZM4.52141 4.04097C4.35824 4.25413 4.20428 4.47503 4.06011 4.70314C3.16135 6.12529 2.67978 7.7705 2.67007 9.45209C2.66035 11.1337 3.12288 12.7844 4.00515 14.2168C4.88742 15.6491 6.15414 16.806 7.66154 17.556C9.16896 18.3059 10.8567 18.6191 12.5333 18.4597C14.2099 18.3004 15.8083 17.6751 17.1469 16.6546L15.604 14.6366C14.6432 15.3691 13.4959 15.818 12.2925 15.9323C11.089 16.0467 9.87749 15.8219 8.79553 15.2836C7.71353 14.7453 6.8043 13.9149 6.17101 12.8868C5.53772 11.8586 5.20573 10.6737 5.21271 9.46674C5.21968 8.25972 5.56534 7.0788 6.21047 6.05799C6.36653 5.81104 6.53861 5.57586 6.72524 5.35374C5.73679 4.78546 4.76284 4.21573 4.52141 4.04097Z" fill="white"/>
<path d="M12.5491 11.7394L12.9966 12.1948L13.9088 11.301L13.4612 10.8456L12.5491 11.7394ZM4.00085 10.4835C2.75432 9.08517 1.91034 7.60389 1.53558 6.39995C1.34748 5.79565 1.28882 5.29722 1.3291 4.93054C1.36869 4.57012 1.49341 4.39556 1.62339 4.30844C1.76351 4.21454 2.04781 4.12922 2.59024 4.23728C3.13004 4.3448 3.85424 4.63187 4.78331 5.17846C6.63913 6.27029 9.19539 8.32729 12.5491 11.7394L13.4612 10.8456C10.0735 7.39888 7.42682 5.25261 5.43208 4.07906C4.43585 3.49296 3.57285 3.13181 2.84027 2.98589C2.11032 2.84048 1.43705 2.89647 0.911146 3.24894C0.375105 3.60819 0.125338 4.18506 0.0587276 4.79141C-0.00719512 5.3915 0.0962082 6.07521 0.315181 6.77868C0.754574 8.19027 1.70477 9.82709 3.04625 11.3319L4.00085 10.4835Z" fill="white"/>
<path d="M2.92389 7.71338H4.3233V11.307L2.92367 11.5066C2.87959 11.5722 2.74512 10.9171 2.72382 10.3087C2.71241 9.98284 2.72373 9.87509 2.72372 9.51017C2.72369 8.51195 2.52399 8.7116 2.92389 7.71338Z" fill="white"/>
<path d="M18.7813 15.363L19.1519 15.8827L20.193 15.1425L19.8223 14.6228L18.7813 15.363ZM2.36802 3.78614C2.38884 3.19729 2.53646 2.86166 2.70321 2.67518C2.86002 2.49982 3.10418 2.37746 3.50546 2.36331C4.36262 2.33309 5.6979 2.81086 7.38546 3.8721C10.7123 5.96427 15.0003 10.0613 18.7813 15.363L19.8223 14.6228C15.9727 9.22486 11.5702 4.99569 8.06653 2.79235C6.33878 1.70583 4.7237 1.04352 3.46036 1.08805C2.8014 1.11128 2.19278 1.33001 1.74988 1.82533C1.31693 2.30953 1.11793 2.97419 1.09082 3.74113L2.36802 3.78614Z" fill="white"/>
</g>
<defs>
<clipPath id="clip0_134_100">
<rect width="134" height="18" fill="white" transform="translate(0 0.5)"/>
</clipPath>
</defs>
</svg>
