<svg width="113" height="17" viewBox="0 0 113 17" fill="none" xmlns="http://www.w3.org/2000/svg">
<path d="M19.8692 0.5L16.2579 5.41546H35.9387C36.9275 5.41546 36.918 5.78306 36.4331 6.44286C35.9387 7.11208 35.1148 8.28085 34.6157 8.9595C34.3614 9.30353 33.8906 9.93505 35.4208 9.93505H43.472L45.8497 6.68321C47.3282 4.67555 45.9816 0.5 40.6941 0.5H19.8692ZM53.788 0.5L46.8432 9.93505H72.2211L79.1565 0.5H68.7888L64.8196 5.90088H60.1819L64.1652 0.5H53.788ZM82.5324 0.5L75.5923 9.93505H86.5815L93.5122 0.5H82.5324ZM22.0538 6.62665L14.803 16.4953H32.4781C38.3164 16.4953 41.5746 12.5177 42.5775 11.1415H30.5241C28.9892 11.1415 29.46 10.5147 29.7143 10.166C30.2181 9.49205 31.0468 8.33741 31.5411 7.66819C32.0308 7.0084 32.0449 6.63137 31.0467 6.63137H22.0538V6.62665ZM0 11.1462V12.2867H15.9989L16.8276 11.1462H0ZM45.9628 11.1462L42.0266 16.5H52.399L56.3352 11.1462H45.9628ZM60.9588 11.1462L57.0226 16.5H67.3951L71.3312 11.1462H60.9588ZM74.6977 11.1462C74.6977 11.1462 73.9491 12.1831 73.5771 12.6826C72.2776 14.4452 73.4218 16.5 77.6734 16.5H94.3315L98.2582 11.1462H74.6977ZM100.16 11.1462L99.327 12.2867H113V11.1462H100.16ZM0 13.2576V14.3887H14.4452L15.2832 13.2576H0ZM98.6066 13.2576L97.7827 14.3887H113V13.2576H98.6066ZM0 15.3642V16.4953H12.9008L13.7295 15.3642H0ZM97.0623 15.3642L96.2289 16.4953H113V15.3642H97.0623Z" fill="white"/>
</svg>
