<svg width="55" height="17" viewBox="0 0 55 17" fill="none" xmlns="http://www.w3.org/2000/svg">
<path fill-rule="evenodd" clip-rule="evenodd" d="M47.6911 15.5393C47.5145 15.8827 46.9951 16.5 46.0931 16.5H42.3885C41.4925 16.5 40.9625 15.8753 40.8031 15.548L35.7865 5.328C35.2945 4.36533 34.2611 4.056 33.3978 4.056H24.2891C23.4491 4.056 22.9591 4.596 22.9591 5.38933C22.9591 6.23333 23.5058 6.72267 24.3018 6.72267H30.5685C33.2371 6.72267 35.4458 8.34067 35.4458 11.6113C35.4458 14.902 33.2158 16.4993 30.5685 16.4993H22.5145C21.7838 16.4993 21.1765 16.0747 21.1765 15.1507V13.39C21.1765 13.0907 21.3765 12.9447 21.6231 12.9447H28.7858C29.5285 12.9447 30.1238 12.4973 30.1238 11.6113C30.1238 10.7353 29.5391 10.2767 28.7878 10.2767L22.0505 10.278C20.9211 10.278 19.8958 9.96867 19.1705 9.49133C18.7985 13.8273 15.7065 16.4993 11.1885 16.4993H1.11184C0.86517 16.4993 0.666504 16.3513 0.666504 16.0547V7.16733C0.666504 6.872 0.862504 6.724 1.1045 6.72267H4.65117C5.59717 6.72267 6.01717 7.33 6.01717 8.04933V12.5H6.01983C6.01983 12.7953 6.21583 12.942 6.45716 12.944H9.53449C11.9545 12.944 13.9678 11.4747 13.9678 8.50067C13.9678 5.52133 11.9632 4.05667 9.53449 4.05667H1.10117C0.86117 4.052 0.666504 3.90667 0.666504 3.61067V1.84667C0.666504 0.849333 1.36984 0.5 2.01717 0.5H11.2338C13.8285 0.5 16.1752 1.46333 17.5565 3.23933C18.3065 1.43267 19.9845 0.5 22.0911 0.5H35.2911C36.9131 0.5 38.7485 1.058 39.7031 2.93467L43.9745 11.9173C44.0185 12.0093 44.1051 12.0527 44.2138 12.0527C44.3131 12.0527 44.4058 12.016 44.4511 11.922C44.4511 11.922 49.7331 0.779333 49.7645 0.715333C49.7911 0.655333 49.9005 0.5 50.1578 0.5H54.2198C54.4671 0.5 54.6664 0.646667 54.6664 0.944C54.6676 1.01877 54.6526 1.09289 54.6224 1.16133L47.6911 15.5393Z" fill="white"/>
</svg>
