<svg width="110" height="21" viewBox="0 0 110 21" fill="none" xmlns="http://www.w3.org/2000/svg">
<path fill-rule="evenodd" clip-rule="evenodd" d="M26.493 9.92495V15.3495C26.493 15.5996 26.2916 15.8026 26.0441 15.8026H23.9288C23.8695 15.8024 23.8109 15.7905 23.7562 15.7676C23.7015 15.7447 23.6519 15.7113 23.6101 15.6692C23.5684 15.6271 23.5353 15.5773 23.5128 15.5224C23.4903 15.4676 23.4789 15.4088 23.4791 15.3495V3.82073C23.4777 3.10335 23.7613 2.41479 24.2675 1.90642C24.7737 1.39805 25.461 1.11148 26.1784 1.1097H33.0403C33.2895 1.1097 33.4908 1.31192 33.4908 1.56196V3.48343C33.4908 3.73263 33.2895 3.93485 33.0403 3.93485H27.1685C27.0797 3.93507 26.9918 3.95278 26.9098 3.98697C26.8278 4.02116 26.7534 4.07116 26.6907 4.13411C26.6281 4.19707 26.5785 4.27174 26.5447 4.35388C26.5109 4.43602 26.4936 4.524 26.4939 4.61281V7.09981H32.1408C32.3891 7.09981 32.5905 7.30203 32.5905 7.55207V9.47353C32.5905 9.72274 32.3891 9.92579 32.1408 9.92579H26.4939L26.493 9.92495ZM36.9981 15.8018H34.9508C34.8916 15.8017 34.8329 15.7899 34.7783 15.7671C34.7236 15.7443 34.6739 15.7109 34.6322 15.6689C34.5904 15.6269 34.5573 15.5771 34.5348 15.5223C34.5123 15.4675 34.5009 15.4088 34.5011 15.3495V8.34247C34.5011 5.65242 36.1205 4.22852 39.1806 4.22852C39.5247 4.22959 39.8679 4.26274 40.2059 4.32753C40.3099 4.34712 40.4037 4.40249 40.4712 4.48402C40.5386 4.56555 40.5754 4.66811 40.5751 4.77391V6.63245C40.5751 6.91018 40.3292 7.12247 40.0566 7.078C39.7669 7.03093 39.474 7.00764 39.1806 7.00835C37.8087 7.00835 37.4487 7.46145 37.4487 8.56902V15.3495C37.4487 15.5996 37.2474 15.8026 36.9981 15.8026M47.4378 11.1903H45.1212C44.0639 11.1903 43.5236 11.5972 43.5236 12.4338C43.6134 13.5187 44.3333 13.632 45.4367 13.6093C46.5837 13.632 47.3254 13.496 47.4378 12.2752V11.1903ZM50.3628 12.4338C50.3628 14.8755 48.8777 16.0736 45.4811 16.0736C42.0837 16.0736 40.5986 14.8755 40.5986 12.5017C40.5986 10.1507 42.1282 8.97513 45.1656 8.97513H47.4378V8.11592C47.4378 7.03101 46.6508 6.73733 45.0985 6.73733C44.0237 6.73733 43.1418 6.82124 42.432 6.99744C42.3659 7.01312 42.2971 7.01354 42.2309 6.99869C42.1646 6.98384 42.1027 6.9541 42.0496 6.91173C41.9966 6.86936 41.9539 6.81547 41.9247 6.75414C41.8956 6.69281 41.8808 6.62566 41.8815 6.55777V4.96606C41.8813 4.86767 41.9131 4.77187 41.9721 4.69315C42.0312 4.61444 42.1142 4.55708 42.2088 4.52975C42.9119 4.32837 43.8156 4.22768 44.919 4.22768C48.4506 4.22768 50.3628 5.31344 50.3628 8.11592V12.4338ZM52.1182 15.3495V1.56112C52.1182 1.31108 52.3195 1.10803 52.5679 1.10803H54.5934C54.8418 1.10803 55.0431 1.31108 55.0431 1.56112V15.3495C55.0431 15.5996 54.8418 15.8026 54.5934 15.8026H52.5679C52.5086 15.8024 52.45 15.7905 52.3953 15.7676C52.3406 15.7447 52.2909 15.7113 52.2492 15.6692C52.2074 15.6271 52.1744 15.5773 52.1519 15.5224C52.1294 15.4676 52.1179 15.4088 52.1182 15.3495ZM59.5095 4.49954H61.9873C62.0726 4.50028 62.156 4.52511 62.2279 4.57118C62.2997 4.61725 62.3571 4.68267 62.3934 4.75992C62.4297 4.83716 62.4434 4.92309 62.4331 5.00781C62.4227 5.09252 62.3885 5.17258 62.3346 5.23876L59.1823 9.0884C58.8903 9.40473 58.7543 9.65309 58.7543 9.83433C58.7543 9.99208 58.8903 10.2413 59.1604 10.5576L62.7953 15.0651C62.8489 15.1313 62.8827 15.2113 62.8928 15.2959C62.9029 15.3805 62.8889 15.4662 62.8524 15.5432C62.8159 15.6202 62.7584 15.6853 62.6866 15.731C62.6147 15.7768 62.5314 15.8013 62.4462 15.8018H59.9609C59.8935 15.8017 59.8269 15.7864 59.7662 15.7571C59.7055 15.7277 59.6522 15.6851 59.6102 15.6323L56.6852 11.9589C56.1004 11.2356 55.8075 10.4905 55.8075 9.74371C55.8075 8.99778 56.0324 8.54553 56.6852 7.73163L59.1604 4.66651C59.2024 4.61426 59.2555 4.57207 59.3159 4.54303C59.3764 4.51399 59.4425 4.49968 59.5095 4.49954ZM84.919 11.1903H82.6015C81.5443 11.1903 81.0039 11.5972 81.0039 12.4338C81.0945 13.5187 81.8144 13.632 82.917 13.6093C84.064 13.632 84.8066 13.496 84.919 12.2752V11.1903ZM87.844 12.4338C87.844 14.8755 86.3588 16.0736 82.9615 16.0736C79.5641 16.0736 78.0798 14.8755 78.0798 12.5017C78.0798 10.1507 79.6094 8.97513 82.6468 8.97513H84.919V8.11592C84.919 7.03101 84.132 6.73733 82.5788 6.73733C81.5048 6.73733 80.623 6.82124 79.9123 6.99744C79.8462 7.01312 79.7775 7.01354 79.7112 6.99869C79.645 6.98384 79.583 6.9541 79.5299 6.91173C79.4769 6.86936 79.4342 6.81547 79.4051 6.75414C79.3759 6.69281 79.3612 6.62566 79.3619 6.55777V4.96606C79.3616 4.86767 79.3934 4.77187 79.4525 4.69315C79.5115 4.61444 79.5946 4.55708 79.6891 4.52975C80.3931 4.32837 81.2959 4.22768 82.3993 4.22768C85.9318 4.22768 87.844 5.31344 87.844 8.11592V12.4338ZM89.5993 15.3495V1.56112C89.5993 1.31108 89.8007 1.10803 90.0491 1.10803H92.0737C92.3221 1.10803 92.5235 1.31108 92.5235 1.56112V15.3495C92.5235 15.5996 92.3221 15.8026 92.0737 15.8026H90.0491C89.9898 15.8024 89.9311 15.7905 89.8764 15.7676C89.8218 15.7447 89.7721 15.7113 89.7304 15.6692C89.6886 15.6271 89.6555 15.5773 89.633 15.5224C89.6106 15.4676 89.5991 15.4088 89.5993 15.3495ZM96.9907 4.49954H99.4676C99.553 4.50012 99.6365 4.52484 99.7085 4.57085C99.7805 4.61685 99.838 4.68226 99.8744 4.75954C99.9108 4.83682 99.9246 4.92281 99.9142 5.0076C99.9039 5.09239 99.8698 5.17252 99.8158 5.23876L96.6634 9.0884C96.3706 9.40473 96.2355 9.65309 96.2355 9.83433C96.2355 9.99208 96.3706 10.2413 96.6408 10.5576L100.276 15.0651C100.33 15.1313 100.364 15.2113 100.374 15.2959C100.384 15.3805 100.37 15.4662 100.334 15.5432C100.297 15.6202 100.24 15.6853 100.168 15.731C100.096 15.7768 100.013 15.8013 99.9274 15.8018H97.4421C97.3745 15.8018 97.3078 15.7866 97.2469 15.7572C97.186 15.7279 97.1326 15.6852 97.0905 15.6323L94.1664 11.9589C93.5815 11.2356 93.2887 10.4905 93.2887 9.74371C93.2887 8.99778 93.5136 8.54553 94.1664 7.73163L96.6416 4.66651C96.6836 4.61426 96.7367 4.57207 96.7971 4.54303C96.8575 4.51399 96.9237 4.49968 96.9907 4.49954ZM106.853 13.2703C105.908 13.2703 105.435 12.7727 105.435 11.7558V7.27937H108.811C108.93 7.27893 109.044 7.23117 109.129 7.14656C109.213 7.06195 109.26 6.94739 109.26 6.82795V4.9518C109.261 4.89252 109.249 4.83377 109.227 4.77892C109.204 4.72406 109.171 4.67418 109.129 4.6321C109.088 4.59003 109.038 4.55659 108.983 4.5337C108.929 4.51081 108.87 4.49892 108.811 4.4987H105.436V1.56112C105.436 1.50195 105.424 1.44334 105.402 1.38863C105.379 1.33392 105.346 1.28419 105.305 1.24227C105.263 1.20035 105.213 1.16707 105.159 1.14432C105.104 1.12158 105.045 1.10981 104.986 1.1097H102.961C102.901 1.10981 102.843 1.12158 102.788 1.14432C102.734 1.16707 102.684 1.20035 102.642 1.24227C102.601 1.28419 102.567 1.33392 102.545 1.38863C102.522 1.44334 102.511 1.50195 102.511 1.56112V4.50038H101.187C101.067 4.50082 100.953 4.54869 100.868 4.63348C100.784 4.71828 100.737 4.83306 100.737 4.95264V6.82711C100.737 7.07632 100.938 7.27853 101.187 7.27853H102.513V11.7323C102.513 14.6028 103.952 16.0493 106.854 16.0493C107.813 16.0493 108.636 15.9302 109.353 15.6902C109.444 15.6603 109.523 15.6025 109.58 15.5249C109.636 15.4473 109.666 15.354 109.666 15.2581V13.4264C109.667 13.3573 109.652 13.289 109.622 13.2269C109.592 13.1647 109.548 13.1104 109.493 13.0681C109.438 13.0258 109.375 12.9968 109.307 12.9833C109.239 12.9697 109.169 12.9721 109.103 12.9901C108.452 13.1763 107.7 13.2695 106.854 13.2695M69.3727 13.2703C68.428 13.2703 67.9547 12.7727 67.9547 11.7558V7.27937H71.3303C71.3895 7.27926 71.448 7.2675 71.5027 7.24475C71.5573 7.22201 71.6069 7.18872 71.6487 7.14681C71.6904 7.10489 71.7235 7.05516 71.7461 7.00045C71.7686 6.94574 71.7801 6.88712 71.78 6.82795V4.9518C71.7804 4.89248 71.769 4.83369 71.7465 4.77879C71.7241 4.72389 71.691 4.67395 71.6493 4.63186C71.6075 4.58976 71.5578 4.55633 71.503 4.53348C71.4483 4.51063 71.3896 4.49881 71.3303 4.4987H67.9556L67.9505 1.56028C67.9505 1.44085 67.9032 1.32628 67.8189 1.24167C67.7346 1.15707 67.6202 1.10931 67.5008 1.10887H65.4803C65.4211 1.10898 65.3626 1.12074 65.3079 1.14348C65.2533 1.16623 65.2037 1.19951 65.162 1.24143C65.1202 1.28335 65.0871 1.33308 65.0646 1.38779C65.042 1.4425 65.0305 1.50111 65.0306 1.56028V4.49954H63.7048C63.5853 4.49998 63.4707 4.54785 63.3864 4.63265C63.3021 4.71744 63.2549 4.83222 63.2551 4.9518V6.82711C63.2551 7.07632 63.4565 7.27853 63.7057 7.27853H65.0306V11.7323C65.0306 14.6028 66.4704 16.0493 69.3727 16.0493C70.3318 16.0493 71.1541 15.9302 71.8707 15.6902C71.9617 15.6602 72.041 15.6024 72.0974 15.5248C72.1537 15.4473 72.1842 15.3539 72.1845 15.2581V13.4264C72.1852 13.3573 72.1699 13.289 72.1398 13.2269C72.1097 13.1647 72.0656 13.1104 72.011 13.0681C71.9563 13.0258 71.8927 12.9968 71.8249 12.9833C71.7572 12.9697 71.6873 12.9721 71.6206 12.9901C70.9712 13.1763 70.2177 13.2695 69.3719 13.2695M76.4293 4.49283H74.0665C73.992 4.49327 73.9207 4.52317 73.8682 4.57599C73.8157 4.62882 73.7862 4.70027 73.7862 4.77475V16.2473C73.7862 17.4002 73.4926 17.7618 72.7961 17.7618C72.5948 17.7618 72.4102 17.7451 72.2424 17.714C72.0729 17.6813 71.9185 17.8197 71.9185 17.9926V20.1138C71.9185 20.2413 72.0024 20.3504 72.1241 20.3873C72.4815 20.4947 72.8884 20.5417 73.3583 20.5417C75.4056 20.5417 76.7104 19.367 76.7104 16.9026V4.77475C76.7104 4.70013 76.6808 4.62854 76.6281 4.5757C76.5754 4.52285 76.5039 4.49305 76.4293 4.49283ZM74.22 0.894903C74.3533 0.756803 74.5129 0.646962 74.6895 0.57194C74.8661 0.496918 75.056 0.458252 75.2479 0.458252C75.4398 0.458252 75.6297 0.496918 75.8063 0.57194C75.9829 0.646962 76.1426 0.756803 76.2758 0.894903C76.8547 1.47722 76.8547 2.37838 76.2758 2.96069C75.6968 3.543 74.799 3.543 74.22 2.96069C74.0825 2.82613 73.9732 2.66545 73.8986 2.48808C73.824 2.31071 73.7855 2.12022 73.7855 1.9278C73.7855 1.73537 73.824 1.54488 73.8986 1.36751C73.9732 1.19014 74.0825 1.02946 74.22 0.894903Z" fill="white"/>
<path d="M2.59972 1.07446C2.08581 1.0758 1.59347 1.28117 1.23094 1.64542C0.868419 2.00968 0.665394 2.503 0.666508 3.01691C0.665617 3.53067 0.86874 4.02377 1.23124 4.38785C1.59374 4.75192 2.08596 4.95718 2.59972 4.95851H10.3317C10.8455 4.95718 11.3377 4.75192 11.7002 4.38785C12.0627 4.02377 12.2658 3.53067 12.2649 3.01691C12.2661 2.50314 12.0632 2.00995 11.7008 1.64572C11.3385 1.28149 10.8463 1.07602 10.3326 1.07446H2.59972Z" fill="white"/>
<path fill-rule="evenodd" clip-rule="evenodd" d="M2.59972 1.07446C2.08581 1.0758 1.59347 1.28117 1.23094 1.64542C0.868419 2.00968 0.665394 2.503 0.666508 3.01691C0.665617 3.53067 0.86874 4.02377 1.23124 4.38785C1.59374 4.75192 2.08596 4.95718 2.59972 4.95851H10.3317C10.8455 4.95718 11.3377 4.75192 11.7002 4.38785C12.0627 4.02377 12.2658 3.53067 12.2649 3.01691C12.2661 2.50314 12.0632 2.00995 11.7008 1.64572C11.3385 1.28149 10.8463 1.07602 10.3326 1.07446H2.59972Z" fill="white"/>
<path fill-rule="evenodd" clip-rule="evenodd" d="M15.1648 1.07446C14.6508 1.0758 14.1585 1.28117 13.796 1.64542C13.4335 2.00968 13.2304 2.503 13.2315 3.01691C13.2304 3.53082 13.4335 4.02413 13.796 4.38839C14.1585 4.75264 14.6508 4.95801 15.1648 4.95935C15.6787 4.95801 16.171 4.75264 16.5335 4.38839C16.8961 4.02413 17.0991 3.53082 17.098 3.01691C17.0991 2.503 16.8961 2.00968 16.5335 1.64542C16.171 1.28117 15.6787 1.0758 15.1648 1.07446Z" fill="white"/>
<path d="M2.59972 6.5133C2.08581 6.51464 1.59347 6.72001 1.23094 7.08426C0.868419 7.44852 0.665394 7.94183 0.666508 8.45574C0.665394 8.96966 0.868419 9.46297 1.23094 9.82723C1.59347 10.1915 2.08581 10.3969 2.59972 10.3982H10.3317C10.8456 10.3969 11.338 10.1915 11.7005 9.82723C12.063 9.46297 12.2661 8.96966 12.2649 8.45574C12.2661 7.94198 12.0632 7.44879 11.7008 7.08456C11.3385 6.72033 10.8463 6.51486 10.3326 6.5133H2.59972Z" fill="white"/>
<path fill-rule="evenodd" clip-rule="evenodd" d="M2.59972 6.5133C2.08581 6.51464 1.59347 6.72001 1.23094 7.08426C0.868419 7.44852 0.665394 7.94183 0.666508 8.45574C0.665394 8.96966 0.868419 9.46297 1.23094 9.82723C1.59347 10.1915 2.08581 10.3969 2.59972 10.3982H10.3317C10.8456 10.3969 11.338 10.1915 11.7005 9.82723C12.063 9.46297 12.2661 8.96966 12.2649 8.45574C12.2661 7.94198 12.0632 7.44879 11.7008 7.08456C11.3385 6.72033 10.8463 6.51486 10.3326 6.5133H2.59972Z" fill="white"/>
<path fill-rule="evenodd" clip-rule="evenodd" d="M15.1648 6.5133C14.6508 6.51464 14.1585 6.72001 13.796 7.08426C13.4335 7.44852 13.2304 7.94183 13.2315 8.45574C13.2307 8.96951 13.4338 9.46261 13.7963 9.82668C14.1588 10.1908 14.651 10.396 15.1648 10.3973C15.6785 10.396 16.1707 10.1908 16.5332 9.82668C16.8957 9.46261 17.0989 8.96951 17.098 8.45574C17.0991 7.94183 16.8961 7.44852 16.5335 7.08426C16.171 6.72001 15.6787 6.51464 15.1648 6.5133ZM15.1648 11.9513H7.43275C6.91884 11.9526 6.42649 12.158 6.06397 12.5223C5.70145 12.8865 5.49842 13.3798 5.49954 13.8937C5.49864 14.4075 5.70177 14.9006 6.06427 15.2647C6.42677 15.6288 6.91898 15.834 7.43275 15.8353H15.1648C15.6785 15.834 16.1707 15.6288 16.5332 15.2647C16.8957 14.9006 17.0989 14.4075 17.098 13.8937C17.0991 13.3798 16.8961 12.8865 16.5335 12.5223C16.171 12.158 15.6787 11.9526 15.1648 11.9513Z" fill="white"/>
<path d="M0.666508 13.8937C0.665617 14.4075 0.86874 14.9006 1.23124 15.2647C1.59374 15.6288 2.08596 15.834 2.59972 15.8353C3.11349 15.834 3.6057 15.6288 3.9682 15.2647C4.3307 14.9006 4.53382 14.4075 4.53293 13.8937C4.53405 13.3798 4.33102 12.8865 3.9685 12.5223C3.60597 12.158 3.11363 11.9526 2.59972 11.9513C2.08581 11.9526 1.59347 12.158 1.23094 12.5223C0.868419 12.8865 0.665394 13.3798 0.666508 13.8937Z" fill="white"/>
<path fill-rule="evenodd" clip-rule="evenodd" d="M0.666508 13.8937C0.665617 14.4075 0.86874 14.9006 1.23124 15.2647C1.59374 15.6288 2.08596 15.834 2.59972 15.8353C3.11349 15.834 3.6057 15.6288 3.9682 15.2647C4.3307 14.9006 4.53382 14.4075 4.53293 13.8937C4.53405 13.3798 4.33102 12.8865 3.9685 12.5223C3.60597 12.158 3.11363 11.9526 2.59972 11.9513C2.08581 11.9526 1.59347 12.158 1.23094 12.5223C0.868419 12.8865 0.665394 13.3798 0.666508 13.8937Z" fill="white"/>
</svg>
