<svg width="164" height="35" viewBox="0 0 164 35" fill="none" xmlns="http://www.w3.org/2000/svg">
<path d="M154.112 34.2569H135.845C135.205 34.2569 134.809 33.5602 135.136 33.0105L144.249 17.7005C144.402 17.444 144.404 17.125 144.254 16.8664L135.727 2.09679C135.41 1.54704 135.806 0.859863 136.441 0.859863H153.655C153.945 0.859863 154.213 1.01151 154.362 1.25947L163.755 16.877C163.907 17.1295 163.913 17.4439 163.77 17.7016L154.833 33.8319C154.688 34.0942 154.412 34.2569 154.112 34.2569Z" fill="#38BDF8"/>
<path d="M144.496 17.3524C144.56 17.1897 143.016 19.7274 141.846 21.7319L153.942 33.9799C154.289 34.3316 154.854 33.891 154.589 33.4737C151.105 27.9846 144.448 17.4726 144.496 17.3524Z" fill="#236D8E"/>
<path d="M0.525375 23.0001C0.407645 23.0001 0.311321 22.9626 0.236402 22.8877C0.161483 22.8128 0.124023 22.7164 0.124023 22.5987V12.1636C0.124023 12.0458 0.161483 11.9495 0.236402 11.8746C0.311321 11.7997 0.407645 11.7622 0.525375 11.7622H2.59635C2.71408 11.7622 2.8104 11.7997 2.88532 11.8746C2.96024 11.9495 2.9977 12.0458 2.9977 12.1636V16.0326H6.96305V12.1636C6.96305 12.0458 7.00051 11.9495 7.07543 11.8746C7.15035 11.7997 7.24667 11.7622 7.3644 11.7622H9.43538C9.5531 11.7622 9.64943 11.7997 9.72435 11.8746C9.79927 11.9495 9.83673 12.0458 9.83673 12.1636V22.5987C9.83673 22.7164 9.79927 22.8128 9.72435 22.8877C9.64943 22.9626 9.5531 23.0001 9.43538 23.0001H7.3644C7.24667 23.0001 7.15035 22.9626 7.07543 22.8877C7.00051 22.8128 6.96305 22.7164 6.96305 22.5987V18.6013H2.9977V22.5987C2.9977 22.7164 2.96024 22.8128 2.88532 22.8877C2.8104 22.9626 2.71408 23.0001 2.59635 23.0001H0.525375Z" fill="#0B1017"/>
<path d="M12.1664 23.0001C12.0487 23.0001 11.9524 22.9626 11.8775 22.8877C11.8026 22.8128 11.7651 22.7164 11.7651 22.5987V12.1636C11.7651 12.0458 11.8026 11.9495 11.8775 11.8746C11.9524 11.7997 12.0487 11.7622 12.1664 11.7622H14.3177C14.4354 11.7622 14.5317 11.7997 14.6067 11.8746C14.6816 11.9495 14.719 12.0458 14.719 12.1636V22.5987C14.719 22.7164 14.6816 22.8128 14.6067 22.8877C14.5317 22.9626 14.4354 23.0001 14.3177 23.0001H12.1664Z" fill="#0B1017"/>
<path d="M17.0504 23.0001C16.9327 23.0001 16.8363 22.9626 16.7614 22.8877C16.6865 22.8128 16.649 22.7164 16.649 22.5987V12.1636C16.649 12.0458 16.6865 11.9495 16.7614 11.8746C16.8363 11.7997 16.9327 11.7622 17.0504 11.7622H19.1695C19.2766 11.7622 19.3675 11.7997 19.4424 11.8746C19.5281 11.9495 19.5709 12.0458 19.5709 12.1636V20.5759H24.4192C24.5369 20.5759 24.6333 20.6187 24.7082 20.7043C24.7938 20.7793 24.8366 20.8756 24.8366 20.9933V22.5987C24.8366 22.7164 24.7938 22.8128 24.7082 22.8877C24.6333 22.9626 24.5369 23.0001 24.4192 23.0001H17.0504Z" fill="#0B1017"/>
<path d="M29.7922 23.1606C29.1821 23.1606 28.5988 23.0857 28.0423 22.9358C27.4964 22.7753 27.0095 22.5398 26.5814 22.2295C26.1532 21.9191 25.8108 21.5338 25.5539 21.0736C25.3077 20.6134 25.1739 20.0782 25.1525 19.4682C25.1525 19.3718 25.1847 19.2916 25.2489 19.2274C25.3131 19.1524 25.3987 19.115 25.5057 19.115H27.673C27.8229 19.115 27.9352 19.1524 28.0102 19.2274C28.0958 19.3023 28.1654 19.4147 28.2189 19.5645C28.2724 19.8642 28.3741 20.1103 28.5239 20.303C28.6737 20.4849 28.861 20.6241 29.0858 20.7204C29.3212 20.806 29.5835 20.8488 29.8724 20.8488C30.4076 20.8488 30.8196 20.6776 31.1086 20.3351C31.3976 19.9819 31.5421 19.4682 31.5421 18.7939V14.1543H26.3405C26.2335 14.1543 26.1372 14.1168 26.0516 14.0419C25.9767 13.967 25.9392 13.8707 25.9392 13.7529V12.1636C25.9392 12.0458 25.9767 11.9495 26.0516 11.8746C26.1372 11.7997 26.2335 11.7622 26.3405 11.7622H34.1107C34.2284 11.7622 34.3248 11.7997 34.3997 11.8746C34.4853 11.9495 34.5281 12.0458 34.5281 12.1636V18.8742C34.5281 19.8053 34.3248 20.592 33.9181 21.2341C33.5114 21.8656 32.9548 22.3472 32.2484 22.679C31.5421 23.0001 30.7233 23.1606 29.7922 23.1606Z" fill="#0B1017"/>
<path d="M35.448 23.0001C35.3623 23.0001 35.2821 22.968 35.2071 22.9037C35.1429 22.8288 35.1108 22.7486 35.1108 22.6629C35.1108 22.6094 35.1162 22.5613 35.1269 22.5184L38.8996 12.2117C38.9317 12.094 38.9959 11.9923 39.0922 11.9067C39.1993 11.8104 39.3437 11.7622 39.5257 11.7622H41.9017C42.0836 11.7622 42.2228 11.8104 42.3191 11.9067C42.4261 11.9923 42.4957 12.094 42.5278 12.2117L46.2844 22.5184C46.3059 22.5613 46.3166 22.6094 46.3166 22.6629C46.3166 22.7486 46.2791 22.8288 46.2042 22.9037C46.14 22.968 46.0597 23.0001 45.9634 23.0001H43.9887C43.8282 23.0001 43.7051 22.9626 43.6195 22.8877C43.5446 22.8021 43.4964 22.7271 43.475 22.6629L42.8489 21.0254H38.5624L37.9524 22.6629C37.931 22.7271 37.8828 22.8021 37.8079 22.8877C37.733 22.9626 37.6046 23.0001 37.4226 23.0001H35.448ZM39.2207 18.7136H42.2067L40.6976 14.4754L39.2207 18.7136Z" fill="#0B1017"/>
<path d="M50.5921 23.0001C50.4743 23.0001 50.3834 22.968 50.3192 22.9037C50.2549 22.8288 50.2228 22.7378 50.2228 22.6308V12.1315C50.2228 12.0244 50.2549 11.9388 50.3192 11.8746C50.3834 11.7997 50.4743 11.7622 50.5921 11.7622H51.4429C51.55 11.7622 51.6356 11.7997 51.6998 11.8746C51.764 11.9388 51.7961 12.0244 51.7961 12.1315V21.6034H57.1421C57.2599 21.6034 57.3508 21.6408 57.4151 21.7157C57.4793 21.78 57.5114 21.8709 57.5114 21.9887V22.6308C57.5114 22.7378 57.4793 22.8288 57.4151 22.9037C57.3508 22.968 57.2599 23.0001 57.1421 23.0001H50.5921Z" fill="#0B1017"/>
<path d="M62.8206 23.1606C61.9109 23.1606 61.1296 23.0054 60.4767 22.695C59.8239 22.374 59.3208 21.887 58.9677 21.2341C58.6145 20.5706 58.4165 19.7411 58.3737 18.7457C58.363 18.2748 58.3576 17.8253 58.3576 17.3972C58.3576 16.9584 58.363 16.5035 58.3737 16.0326C58.4165 15.048 58.6198 14.2292 58.9837 13.5763C59.3583 12.9128 59.872 12.4204 60.5249 12.0994C61.1885 11.7676 61.9537 11.6017 62.8206 11.6017C63.6982 11.6017 64.4635 11.7676 65.1164 12.0994C65.7799 12.4204 66.299 12.9128 66.6736 13.5763C67.0482 14.2292 67.2515 15.048 67.2837 16.0326C67.3051 16.5035 67.3158 16.9584 67.3158 17.3972C67.3158 17.8253 67.3051 18.2748 67.2837 18.7457C67.2515 19.7411 67.0535 20.5706 66.6897 21.2341C66.3365 21.887 65.8334 22.374 65.1806 22.695C64.5277 23.0054 63.7411 23.1606 62.8206 23.1606ZM62.8206 21.796C63.6447 21.796 64.3137 21.5498 64.8274 21.0575C65.3518 20.5652 65.6354 19.7678 65.6782 18.6655C65.6997 18.1838 65.7104 17.7557 65.7104 17.3811C65.7104 16.9958 65.6997 16.5677 65.6782 16.0968C65.6568 15.3583 65.5177 14.759 65.2608 14.2988C65.0147 13.8386 64.6829 13.5014 64.2655 13.2874C63.8481 13.0733 63.3665 12.9663 62.8206 12.9663C62.2962 12.9663 61.8253 13.0733 61.4079 13.2874C60.9905 13.5014 60.6533 13.8386 60.3965 14.2988C60.1503 14.759 60.0112 15.3583 59.9791 16.0968C59.9684 16.5677 59.963 16.9958 59.963 17.3811C59.963 17.7557 59.9684 18.1838 59.9791 18.6655C60.0219 19.7678 60.3055 20.5652 60.8299 21.0575C61.3544 21.5498 62.0179 21.796 62.8206 21.796Z" fill="#0B1017"/>
<path d="M73.4124 23.1606C72.4706 23.1606 71.6679 22.984 71.0043 22.6308C70.3514 22.2776 69.8484 21.78 69.4952 21.1378C69.1527 20.4956 68.9601 19.7411 68.9173 18.8742C68.9066 18.4033 68.9012 17.9056 68.9012 17.3811C68.9012 16.846 68.9066 16.3376 68.9173 15.856C68.9601 14.9891 69.1527 14.2399 69.4952 13.6084C69.8484 12.977 70.3568 12.4847 71.0204 12.1315C71.6839 11.7783 72.4813 11.6017 73.4124 11.6017C74.1723 11.6017 74.8305 11.7087 75.3871 11.9228C75.9436 12.1368 76.3985 12.4097 76.7517 12.7415C77.1156 13.0626 77.3831 13.3997 77.5544 13.7529C77.7363 14.1061 77.8326 14.4165 77.8433 14.6841C77.854 14.7804 77.8273 14.8607 77.7631 14.9249C77.6989 14.9784 77.6132 15.0051 77.5062 15.0051H76.559C76.452 15.0051 76.3717 14.9837 76.3182 14.9409C76.2754 14.8981 76.2326 14.8232 76.1898 14.7162C76.0934 14.4379 75.9329 14.165 75.7081 13.8974C75.4941 13.6298 75.1998 13.4104 74.8252 13.2392C74.4613 13.0573 73.9904 12.9663 73.4124 12.9663C72.5669 12.9663 71.8819 13.1964 71.3575 13.6566C70.8438 14.1168 70.5655 14.8767 70.5227 15.9363C70.4906 16.8888 70.4906 17.8414 70.5227 18.7939C70.5655 19.8642 70.8491 20.6348 71.3736 21.1057C71.898 21.5659 72.583 21.796 73.4285 21.796C73.9957 21.796 74.4987 21.6943 74.9376 21.491C75.3871 21.2769 75.7403 20.9505 75.9971 20.5117C76.254 20.0729 76.3824 19.5163 76.3824 18.8421V18.1678H73.9743C73.8673 18.1678 73.7763 18.1357 73.7014 18.0715C73.6372 17.9966 73.6051 17.9002 73.6051 17.7825V17.2688C73.6051 17.151 73.6372 17.0601 73.7014 16.9958C73.7763 16.9209 73.8673 16.8835 73.9743 16.8835H77.6025C77.7203 16.8835 77.8112 16.9209 77.8754 16.9958C77.9397 17.0601 77.9718 17.151 77.9718 17.2688V18.81C77.9718 19.6876 77.7898 20.4528 77.4259 21.1057C77.0727 21.7586 76.5537 22.2669 75.8687 22.6308C75.1837 22.984 74.365 23.1606 73.4124 23.1606Z" fill="#0B1017"/>
<path d="M80.3103 23.0001C80.1925 23.0001 80.1016 22.968 80.0373 22.9037C79.9731 22.8288 79.941 22.7378 79.941 22.6308V12.1315C79.941 12.0244 79.9731 11.9388 80.0373 11.8746C80.1016 11.7997 80.1925 11.7622 80.3103 11.7622H81.1611C81.2682 11.7622 81.3538 11.7997 81.418 11.8746C81.4929 11.9388 81.5304 12.0244 81.5304 12.1315V22.6308C81.5304 22.7378 81.4929 22.8288 81.418 22.9037C81.3538 22.968 81.2682 23.0001 81.1611 23.0001H80.3103Z" fill="#0B1017"/>
<path d="M87.6219 23.1606C86.6907 23.1606 85.9095 23.0215 85.278 22.7432C84.6465 22.4542 84.1596 22.085 83.8171 21.6355C83.4853 21.1753 83.3087 20.6883 83.2873 20.1746C83.2873 20.0889 83.3194 20.014 83.3836 19.9498C83.4585 19.8749 83.5442 19.8374 83.6405 19.8374H84.4592C84.5877 19.8374 84.684 19.8695 84.7482 19.9337C84.8124 19.998 84.8552 20.0729 84.8766 20.1585C84.9302 20.4154 85.0586 20.6722 85.2619 20.9291C85.476 21.1753 85.7703 21.384 86.1449 21.5552C86.5302 21.7157 87.0225 21.796 87.6219 21.796C88.5423 21.796 89.2166 21.6355 89.6447 21.3144C90.0835 20.9826 90.3029 20.5438 90.3029 19.998C90.3029 19.6234 90.1852 19.3237 89.9497 19.0989C89.725 18.8635 89.3771 18.6548 88.9062 18.4728C88.4353 18.2909 87.8252 18.0929 87.076 17.8788C86.2947 17.6541 85.6472 17.4079 85.1335 17.1403C84.6198 16.8728 84.2345 16.541 83.9776 16.145C83.7315 15.749 83.6084 15.246 83.6084 14.6359C83.6084 14.058 83.7636 13.5442 84.0739 13.0947C84.3843 12.6345 84.8285 12.2706 85.4064 12.003C85.9951 11.7355 86.7068 11.6017 87.5416 11.6017C88.2052 11.6017 88.7831 11.6927 89.2755 11.8746C89.7785 12.0458 90.1959 12.2813 90.5277 12.581C90.8594 12.87 91.111 13.1857 91.2822 13.5282C91.4534 13.86 91.5444 14.1864 91.5551 14.5075C91.5551 14.5824 91.5284 14.6573 91.4749 14.7322C91.4213 14.7964 91.3357 14.8286 91.218 14.8286H90.3671C90.2922 14.8286 90.2119 14.8071 90.1263 14.7643C90.0514 14.7215 89.9925 14.6413 89.9497 14.5235C89.8855 14.0847 89.6393 13.7155 89.2112 13.4158C88.7831 13.1161 88.2266 12.9663 87.5416 12.9663C86.8459 12.9663 86.2787 13.1001 85.8399 13.3676C85.4118 13.6352 85.1977 14.0526 85.1977 14.6198C85.1977 14.9837 85.2994 15.2888 85.5027 15.5349C85.7061 15.7704 86.0272 15.9791 86.466 16.161C86.9048 16.343 87.4774 16.5356 88.1838 16.739C89.04 16.9744 89.741 17.226 90.2869 17.4935C90.8327 17.7504 91.234 18.0768 91.4909 18.4728C91.7585 18.8581 91.8923 19.3558 91.8923 19.9658C91.8923 20.6401 91.7157 21.2181 91.3625 21.6997C91.0093 22.1706 90.5116 22.5345 89.8695 22.7914C89.238 23.0375 88.4888 23.1606 87.6219 23.1606Z" fill="#0B1017"/>
<path d="M96.3755 23.0001C96.2685 23.0001 96.1775 22.968 96.1026 22.9037C96.0383 22.8288 96.0062 22.7378 96.0062 22.6308V13.191H92.9239C92.8168 13.191 92.7259 13.1589 92.6509 13.0947C92.5867 13.0198 92.5546 12.9288 92.5546 12.8218V12.1475C92.5546 12.0298 92.5867 11.9388 92.6509 11.8746C92.7259 11.7997 92.8168 11.7622 92.9239 11.7622H100.662C100.78 11.7622 100.871 11.7997 100.935 11.8746C101.01 11.9388 101.047 12.0298 101.047 12.1475V12.8218C101.047 12.9288 101.01 13.0198 100.935 13.0947C100.871 13.1589 100.78 13.191 100.662 13.191H97.5956V22.6308C97.5956 22.7378 97.5581 22.8288 97.4832 22.9037C97.419 22.968 97.328 23.0001 97.2103 23.0001H96.3755Z" fill="#0B1017"/>
<path d="M102.895 23.0001C102.777 23.0001 102.686 22.968 102.622 22.9037C102.558 22.8288 102.526 22.7378 102.526 22.6308V12.1315C102.526 12.0244 102.558 11.9388 102.622 11.8746C102.686 11.7997 102.777 11.7622 102.895 11.7622H103.746C103.853 11.7622 103.939 11.7997 104.003 11.8746C104.078 11.9388 104.115 12.0244 104.115 12.1315V22.6308C104.115 22.7378 104.078 22.8288 104.003 22.9037C103.939 22.968 103.853 23.0001 103.746 23.0001H102.895Z" fill="#0B1017"/>
<path d="M110.64 23.1606C109.655 23.1606 108.837 22.9787 108.184 22.6148C107.542 22.2509 107.055 21.7425 106.723 21.0896C106.391 20.4368 106.209 19.6769 106.177 18.81C106.166 18.3711 106.161 17.9002 106.161 17.3972C106.161 16.8942 106.166 16.4126 106.177 15.9523C106.209 15.0854 106.391 14.3255 106.723 13.6727C107.055 13.0198 107.542 12.5114 108.184 12.1475C108.837 11.7836 109.655 11.6017 110.64 11.6017C111.379 11.6017 112.026 11.7034 112.583 11.9067C113.139 12.1101 113.599 12.383 113.963 12.7255C114.338 13.068 114.622 13.4533 114.814 13.8814C115.007 14.2988 115.114 14.7322 115.135 15.1817C115.146 15.2781 115.114 15.3583 115.039 15.4226C114.975 15.4868 114.894 15.5189 114.798 15.5189H113.915C113.819 15.5189 113.733 15.4921 113.658 15.4386C113.594 15.3851 113.546 15.2888 113.514 15.1496C113.332 14.3148 112.989 13.7422 112.486 13.4318C111.994 13.1215 111.373 12.9663 110.624 12.9663C109.768 12.9663 109.088 13.2124 108.585 13.7048C108.082 14.1864 107.809 14.9623 107.766 16.0326C107.734 16.9102 107.734 17.8093 107.766 18.7297C107.809 19.8 108.082 20.5813 108.585 21.0736C109.088 21.5552 109.768 21.796 110.624 21.796C111.373 21.796 111.994 21.6408 112.486 21.3304C112.989 21.0201 113.332 20.4475 113.514 19.6127C113.546 19.4735 113.594 19.3772 113.658 19.3237C113.733 19.2702 113.819 19.2434 113.915 19.2434H114.798C114.894 19.2434 114.975 19.2755 115.039 19.3397C115.114 19.404 115.146 19.4842 115.135 19.5806C115.114 20.0301 115.007 20.4689 114.814 20.897C114.622 21.3144 114.338 21.6943 113.963 22.0368C113.599 22.3793 113.139 22.6522 112.583 22.8556C112.026 23.0589 111.379 23.1606 110.64 23.1606Z" fill="#0B1017"/>
<path d="M120.578 23.1606C119.647 23.1606 118.865 23.0215 118.234 22.7432C117.602 22.4542 117.116 22.085 116.773 21.6355C116.441 21.1753 116.265 20.6883 116.243 20.1746C116.243 20.0889 116.275 20.014 116.34 19.9498C116.414 19.8749 116.5 19.8374 116.596 19.8374H117.415C117.544 19.8374 117.64 19.8695 117.704 19.9337C117.768 19.998 117.811 20.0729 117.833 20.1585C117.886 20.4154 118.015 20.6722 118.218 20.9291C118.432 21.1753 118.726 21.384 119.101 21.5552C119.486 21.7157 119.978 21.796 120.578 21.796C121.498 21.796 122.173 21.6355 122.601 21.3144C123.039 20.9826 123.259 20.5438 123.259 19.998C123.259 19.6234 123.141 19.3237 122.906 19.0989C122.681 18.8635 122.333 18.6548 121.862 18.4728C121.391 18.2909 120.781 18.0929 120.032 17.8788C119.251 17.6541 118.603 17.4079 118.089 17.1403C117.576 16.8728 117.19 16.541 116.934 16.145C116.687 15.749 116.564 15.246 116.564 14.6359C116.564 14.058 116.72 13.5442 117.03 13.0947C117.34 12.6345 117.784 12.2706 118.362 12.003C118.951 11.7355 119.663 11.6017 120.498 11.6017C121.161 11.6017 121.739 11.6927 122.231 11.8746C122.734 12.0458 123.152 12.2813 123.484 12.581C123.815 12.87 124.067 13.1857 124.238 13.5282C124.409 13.86 124.5 14.1864 124.511 14.5075C124.511 14.5824 124.484 14.6573 124.431 14.7322C124.377 14.7964 124.292 14.8286 124.174 14.8286H123.323C123.248 14.8286 123.168 14.8071 123.082 14.7643C123.007 14.7215 122.948 14.6413 122.906 14.5235C122.841 14.0847 122.595 13.7155 122.167 13.4158C121.739 13.1161 121.183 12.9663 120.498 12.9663C119.802 12.9663 119.235 13.1001 118.796 13.3676C118.368 13.6352 118.154 14.0526 118.154 14.6198C118.154 14.9837 118.255 15.2888 118.459 15.5349C118.662 15.7704 118.983 15.9791 119.422 16.161C119.861 16.343 120.433 16.5356 121.14 16.739C121.996 16.9744 122.697 17.226 123.243 17.4935C123.789 17.7504 124.19 18.0768 124.447 18.4728C124.714 18.8581 124.848 19.3558 124.848 19.9658C124.848 20.6401 124.672 21.2181 124.318 21.6997C123.965 22.1706 123.468 22.5345 122.825 22.7914C122.194 23.0375 121.445 23.1606 120.578 23.1606Z" fill="#0B1017"/>
</svg>
