<svg width="247" height="95" viewBox="0 0 247 95" fill="none" xmlns="http://www.w3.org/2000/svg">
<path d="M220.128 94.8424H162.755L191.441 46.6451L164.511 0H218.776L246.831 48.5921L220.128 94.8424Z" fill="#38BDF8"/>
<path d="M191.437 46.6428L183.915 59.2728L220.133 94.8389L191.437 46.6428Z" fill="#236D8E"/>
<path d="M2.09347 61.2471V22.2591H12.9787V36.8338H25.9572V22.2591H36.8425V61.2471H25.9572V46.0444H12.9787V61.2471H2.09347ZM51.9143 22.2591V61.2471H41.0291V22.2591H51.9143ZM56.1009 61.2471V22.2591H66.9862V52.0365H83.785V61.2471H56.1009ZM99.825 61.8751C95.3942 61.8751 91.9838 60.7499 89.594 58.4996C87.2041 56.2493 86.0092 53.0308 86.0092 48.8442V45.7566H96.0571V48.9489C96.0571 51.5655 97.252 52.8738 99.6419 52.8738C102.032 52.8738 103.227 51.5655 103.227 48.9489V22.2591H114.112V49.1582C114.112 53.2401 112.873 56.3801 110.396 58.5781C107.937 60.7761 104.413 61.8751 99.825 61.8751ZM113.615 61.2471L126.698 22.2591H141.351L154.565 61.2471H142.319L140.461 54.8363H127.431L125.52 61.2471H113.615ZM129.943 46.463H138.054L137.949 46.1229C137.269 43.7679 136.606 41.4391 135.961 39.1364C135.315 36.8338 134.679 34.4963 134.051 32.1239C133.405 34.4963 132.751 36.8338 132.088 39.1364C131.425 41.4391 130.745 43.7679 130.047 46.1229L129.943 46.463Z" fill="white"/>
<path d="M66.0466 79.7407V66.9627H68.3107V77.7768H74.2366V79.7407H66.0466ZM80.7114 79.9465C79.5679 79.9465 78.5474 79.675 77.6498 79.1318C76.7579 78.583 76.0518 77.8169 75.5316 76.8335C75.017 75.8444 74.7597 74.6867 74.7597 73.3603C74.7597 72.0281 75.017 70.8675 75.5316 69.8785C76.0518 68.8894 76.7579 68.1233 77.6498 67.5801C78.5474 67.0313 79.5679 66.7568 80.7114 66.7568C81.8491 66.7568 82.8668 67.0313 83.7644 67.5801C84.662 68.1233 85.3681 68.8894 85.8826 69.8785C86.4029 70.8675 86.6631 72.0281 86.6631 73.3603C86.6631 74.6867 86.4029 75.8444 85.8826 76.8335C85.3681 77.8226 84.662 78.5887 83.7644 79.1318C82.8668 79.675 81.8491 79.9465 80.7114 79.9465ZM80.7114 77.9141C81.4089 77.9141 82.0321 77.7368 82.5809 77.3824C83.1355 77.0279 83.5729 76.5133 83.893 75.8387C84.2132 75.1583 84.3733 74.3322 84.3733 73.3603C84.3733 72.3826 84.2132 71.5536 83.893 70.8733C83.5729 70.1929 83.1355 69.6755 82.5809 69.321C82.0321 68.9666 81.4089 68.7893 80.7114 68.7893C80.0139 68.7893 79.3878 68.9666 78.8333 69.321C78.2844 69.6755 77.847 70.1929 77.5212 70.8733C77.201 71.5536 77.0409 72.3826 77.0409 73.3603C77.0409 74.3322 77.201 75.1583 77.5212 75.8387C77.847 76.5133 78.2844 77.0279 78.8333 77.3824C79.3878 77.7368 80.0139 77.9141 80.7114 77.9141ZM93.8925 79.9465C92.7148 79.9465 91.6742 79.6693 90.7709 79.1147C89.8676 78.5601 89.1615 77.7883 88.6527 76.7992C88.1495 75.8101 87.898 74.6638 87.898 73.3603C87.898 72.0224 88.1553 70.859 88.6698 69.8699C89.1901 68.8808 89.899 68.1147 90.7966 67.5715C91.7 67.0284 92.7233 66.7568 93.8668 66.7568C94.8216 66.7568 95.6935 66.9455 96.4824 67.3228C97.2714 67.6945 97.9203 68.2147 98.4292 68.8837C98.9437 69.5469 99.2639 70.3187 99.3897 71.1991H97.0828C96.9227 70.4788 96.5596 69.8985 95.9936 69.4582C95.4333 69.0123 94.7444 68.7893 93.9268 68.7893C93.1607 68.7893 92.4975 68.978 91.9372 69.3553C91.3769 69.7327 90.9424 70.2644 90.6337 70.9504C90.3307 71.6308 90.1792 72.4341 90.1792 73.3603C90.1792 74.2807 90.3335 75.084 90.6423 75.7701C90.951 76.4504 91.3855 76.9793 91.9458 77.3566C92.5118 77.7282 93.1779 77.9141 93.944 77.9141C94.5729 77.9141 95.1332 77.7883 95.6249 77.5367C96.1223 77.2794 96.5139 76.9221 96.7997 76.4647C97.0856 76.0074 97.2314 75.4785 97.2371 74.8782H94.2699V73.0858H99.4754V74.6295C99.4754 75.6643 99.2324 76.5819 98.7465 77.3824C98.2662 78.1828 97.6059 78.8117 96.7654 79.269C95.925 79.7207 94.9674 79.9465 93.8925 79.9465ZM103.506 66.9627V79.7407H101.242V66.9627H103.506ZM110.255 79.9465C108.672 79.9465 107.431 79.5606 106.533 78.7888C105.641 78.0113 105.196 76.9393 105.196 75.5728H107.417C107.428 76.3447 107.683 76.9478 108.18 77.3824C108.683 77.8169 109.381 78.0341 110.272 78.0341C111.067 78.0341 111.707 77.8683 112.193 77.5367C112.679 77.1994 112.922 76.7506 112.922 76.1903C112.922 75.7386 112.739 75.3727 112.374 75.0926C112.008 74.8067 111.399 74.5666 110.547 74.3722L109.175 74.0635C107.9 73.7719 106.959 73.3403 106.353 72.7685C105.747 72.1968 105.444 71.4621 105.444 70.5645C105.444 69.8041 105.639 69.1381 106.027 68.5663C106.422 67.9946 106.971 67.5515 107.674 67.2371C108.383 66.9169 109.206 66.7568 110.144 66.7568C111.573 66.7568 112.705 67.1199 113.54 67.846C114.38 68.5721 114.818 69.5697 114.852 70.839H112.699C112.654 70.1643 112.402 69.6355 111.945 69.2524C111.487 68.8694 110.884 68.6778 110.135 68.6778C109.426 68.6778 108.846 68.8436 108.394 69.1752C107.943 69.5068 107.717 69.9328 107.717 70.453C107.717 70.8818 107.894 71.2306 108.249 71.4993C108.609 71.7623 109.206 71.9881 110.041 72.1768L111.336 72.4769C112.662 72.7685 113.634 73.203 114.252 73.7805C114.869 74.3579 115.178 75.1155 115.178 76.0531C115.178 76.8478 114.978 77.5367 114.578 78.1199C114.177 78.703 113.608 79.1547 112.871 79.4749C112.133 79.7893 111.262 79.9465 110.255 79.9465ZM116.198 68.9265V66.9627H126.412V68.9265H122.45V79.7407H120.178V68.9265H116.198ZM130.143 66.9627V79.7407H127.879V66.9627H130.143ZM137.844 79.9465C136.666 79.9465 135.626 79.675 134.722 79.1318C133.819 78.5887 133.11 77.8226 132.595 76.8335C132.081 75.8444 131.824 74.6867 131.824 73.3603C131.824 72.0224 132.081 70.859 132.595 69.8699C133.11 68.8808 133.819 68.1147 134.722 67.5715C135.626 67.0284 136.666 66.7568 137.844 66.7568C138.804 66.7568 139.673 66.9455 140.451 67.3228C141.229 67.7002 141.869 68.2319 142.372 68.918C142.881 69.604 143.207 70.413 143.35 71.3449H141.043C140.871 70.5331 140.502 69.9042 139.936 69.4582C139.37 69.0123 138.679 68.7893 137.861 68.7893C137.084 68.7893 136.412 68.978 135.846 69.3553C135.285 69.7327 134.854 70.2644 134.551 70.9504C134.253 71.6365 134.105 72.4398 134.105 73.3603C134.105 74.275 134.253 75.0754 134.551 75.7615C134.854 76.4419 135.285 76.9707 135.846 77.3481C136.406 77.7254 137.078 77.9141 137.861 77.9141C138.673 77.9141 139.362 77.6939 139.928 77.2537C140.494 76.8135 140.868 76.1874 141.051 75.3756H143.35C143.207 76.3075 142.881 77.1165 142.372 77.8026C141.869 78.4829 141.229 79.0118 140.451 79.3891C139.673 79.7607 138.804 79.9465 137.844 79.9465ZM149.619 79.9465C148.035 79.9465 146.794 79.5606 145.897 78.7888C145.005 78.0113 144.559 76.9393 144.559 75.5728H146.78C146.791 76.3447 147.046 76.9478 147.543 77.3824C148.046 77.8169 148.744 78.0341 149.636 78.0341C150.43 78.0341 151.071 77.8683 151.557 77.5367C152.043 77.1994 152.286 76.7506 152.286 76.1903C152.286 75.7386 152.103 75.3727 151.737 75.0926C151.371 74.8067 150.762 74.5666 149.91 74.3722L148.538 74.0635C147.263 73.7719 146.323 73.3403 145.717 72.7685C145.111 72.1968 144.808 71.4621 144.808 70.5645C144.808 69.8041 145.002 69.1381 145.391 68.5663C145.785 67.9946 146.334 67.5515 147.037 67.2371C147.746 66.9169 148.569 66.7568 149.507 66.7568C150.936 66.7568 152.068 67.1199 152.903 67.846C153.744 68.5721 154.181 69.5697 154.215 70.839H152.063C152.017 70.1643 151.765 69.6355 151.308 69.2524C150.851 68.8694 150.248 68.6778 149.499 68.6778C148.79 68.6778 148.209 68.8436 147.758 69.1752C147.306 69.5068 147.08 69.9328 147.08 70.453C147.08 70.8818 147.257 71.2306 147.612 71.4993C147.972 71.7623 148.569 71.9881 149.404 72.1768L150.699 72.4769C152.026 72.7685 152.998 73.203 153.615 73.7805C154.232 74.3579 154.541 75.1155 154.541 76.0531C154.541 76.8478 154.341 77.5367 153.941 78.1199C153.541 78.703 152.972 79.1547 152.234 79.4749C151.497 79.7893 150.625 79.9465 149.619 79.9465Z" fill="white"/>
</svg>
