<svg width="200" height="75" viewBox="0 0 200 75" fill="none" xmlns="http://www.w3.org/2000/svg">
<g clip-path="url(#clip0_101_509)">
<path d="M177.613 75H136.591C135.155 75 134.265 73.4354 135 72.201L155.464 37.8192C155.807 37.2431 155.812 36.5267 155.476 35.9461L136.327 2.77778C135.614 1.54321 136.505 0 137.93 0H176.588C177.238 0 177.84 0.340562 178.175 0.897391L199.269 35.9698C199.61 36.5369 199.623 37.2429 199.302 37.8217L179.233 74.0456C178.907 74.6346 178.287 75 177.613 75Z" fill="#38BDF8"/>
<path d="M177.613 75H136.591C135.155 75 134.265 73.4354 135 72.201L155.464 37.8192C155.807 37.2431 155.812 36.5267 155.476 35.9461L136.327 2.77778C135.614 1.54321 136.505 0 137.93 0H176.588C177.238 0 177.84 0.340562 178.175 0.897391L199.269 35.9698C199.61 36.5369 199.623 37.2429 199.302 37.8217L179.233 74.0456C178.907 74.6346 178.287 75 177.613 75Z" fill="#38BDF8"/>
<path d="M156.019 37.0367C156.164 36.6713 152.695 42.3704 150.067 46.8719L177.233 74.3774C178.012 75.1671 179.281 74.1775 178.686 73.2405C170.861 60.9136 155.912 37.3066 156.019 37.0367Z" fill="#236D8E"/>
</g>
<path d="M4.02584 47.5928C3.71507 47.5928 3.46081 47.4939 3.26305 47.2961C3.06529 47.0984 2.96641 46.8441 2.96641 46.5333V18.9881C2.96641 18.6774 3.06529 18.4231 3.26305 18.2253C3.46081 18.0276 3.71507 17.9287 4.02584 17.9287H9.49251C9.80327 17.9287 10.0575 18.0276 10.2553 18.2253C10.4531 18.4231 10.5519 18.6774 10.5519 18.9881V29.201H21.0191V18.9881C21.0191 18.6774 21.118 18.4231 21.3158 18.2253C21.5135 18.0276 21.7678 17.9287 22.0786 17.9287H27.5452C27.856 17.9287 28.1103 18.0276 28.308 18.2253C28.5058 18.4231 28.6047 18.6774 28.6047 18.9881V46.5333C28.6047 46.8441 28.5058 47.0984 28.308 47.2961C28.1103 47.4939 27.856 47.5928 27.5452 47.5928H22.0786C21.7678 47.5928 21.5135 47.4939 21.3158 47.2961C21.118 47.0984 21.0191 46.8441 21.0191 46.5333V35.9814H10.5519V46.5333C10.5519 46.8441 10.4531 47.0984 10.2553 47.2961C10.0575 47.4939 9.80327 47.5928 9.49251 47.5928H4.02584ZM34.7543 47.5928C34.4436 47.5928 34.1893 47.4939 33.9915 47.2961C33.7938 47.0984 33.6949 46.8441 33.6949 46.5333V18.9881C33.6949 18.6774 33.7938 18.4231 33.9915 18.2253C34.1893 18.0276 34.4436 17.9287 34.7543 17.9287H40.4329C40.7436 17.9287 40.9979 18.0276 41.1957 18.2253C41.3934 18.4231 41.4923 18.6774 41.4923 18.9881V46.5333C41.4923 46.8441 41.3934 47.0984 41.1957 47.2961C40.9979 47.4939 40.7436 47.5928 40.4329 47.5928H34.7543ZM47.6463 47.5928C47.3355 47.5928 47.0813 47.4939 46.8835 47.2961C46.6857 47.0984 46.5869 46.8441 46.5869 46.5333V18.9881C46.5869 18.6774 46.6857 18.4231 46.8835 18.2253C47.0813 18.0276 47.3355 17.9287 47.6463 17.9287H53.2401C53.5226 17.9287 53.7627 18.0276 53.9605 18.2253C54.1865 18.4231 54.2995 18.6774 54.2995 18.9881V41.1938H67.0974C67.4082 41.1938 67.6625 41.3068 67.8602 41.5328C68.0863 41.7306 68.1993 41.9848 68.1993 42.2956V46.5333C68.1993 46.8441 68.0863 47.0984 67.8602 47.2961C67.6625 47.4939 67.4082 47.5928 67.0974 47.5928H47.6463ZM81.2803 48.0165C79.6699 48.0165 78.1302 47.8188 76.6611 47.4233C75.2203 46.9995 73.9349 46.378 72.8048 45.5587C71.6747 44.7394 70.7707 43.7223 70.0927 42.5075C69.4429 41.2927 69.0897 39.8801 69.0332 38.2698C69.0332 38.0155 69.118 37.8036 69.2875 37.6341C69.457 37.4364 69.683 37.3375 69.9655 37.3375H75.6865C76.082 37.3375 76.3786 37.4364 76.5764 37.6341C76.8024 37.8319 76.986 38.1285 77.1273 38.524C77.2685 39.3151 77.5369 39.9649 77.9325 40.4734C78.328 40.9537 78.8224 41.3209 79.4157 41.5752C80.0372 41.8012 80.7294 41.9142 81.4921 41.9142C82.9047 41.9142 83.9924 41.4622 84.7552 40.5581C85.518 39.6258 85.8994 38.2698 85.8994 36.4899V24.2429H72.1691C71.8866 24.2429 71.6324 24.144 71.4064 23.9463C71.2086 23.7485 71.1097 23.4942 71.1097 23.1835V18.9881C71.1097 18.6774 71.2086 18.4231 71.4064 18.2253C71.6324 18.0276 71.8866 17.9287 72.1691 17.9287H92.6797C92.9905 17.9287 93.2448 18.0276 93.4425 18.2253C93.6685 18.4231 93.7816 18.6774 93.7816 18.9881V36.7018C93.7816 39.1597 93.2448 41.2362 92.1712 42.9313C91.0977 44.5981 89.6286 45.8694 87.764 46.7452C85.8994 47.5928 83.7381 48.0165 81.2803 48.0165ZM96.2096 47.5928C95.9836 47.5928 95.7717 47.508 95.574 47.3385C95.4045 47.1407 95.3197 46.9289 95.3197 46.7029C95.3197 46.5616 95.3338 46.4345 95.3621 46.3215L105.321 19.1152C105.406 18.8045 105.575 18.5361 105.829 18.3101C106.112 18.0558 106.493 17.9287 106.973 17.9287H113.245C113.726 17.9287 114.093 18.0558 114.347 18.3101C114.63 18.5361 114.813 18.8045 114.898 19.1152L124.814 46.3215C124.871 46.4345 124.899 46.5616 124.899 46.7029C124.899 46.9289 124.8 47.1407 124.602 47.3385C124.433 47.508 124.221 47.5928 123.967 47.5928H118.754C118.331 47.5928 118.006 47.4939 117.78 47.2961C117.582 47.0701 117.455 46.8724 117.398 46.7029L115.746 42.3804H104.431L102.82 46.7029C102.764 46.8724 102.637 47.0701 102.439 47.2961C102.241 47.4939 101.902 47.5928 101.422 47.5928H96.2096ZM106.168 36.278H114.05L110.067 25.0904L106.168 36.278Z" fill="white"/>
<path d="M58.6289 62.7778C58.527 62.7778 58.4483 62.7501 58.3928 62.6945C58.3372 62.6297 58.3095 62.551 58.3095 62.4584V53.3751C58.3095 53.2825 58.3372 53.2084 58.3928 53.1528C58.4483 53.088 58.527 53.0556 58.6289 53.0556H59.365C59.4576 53.0556 59.5317 53.088 59.5872 53.1528C59.6428 53.2084 59.6706 53.2825 59.6706 53.3751V61.5695H64.2956C64.3974 61.5695 64.4761 61.6019 64.5317 61.6667C64.5872 61.7223 64.615 61.801 64.615 61.9028V62.4584C64.615 62.551 64.5872 62.6297 64.5317 62.6945C64.4761 62.7501 64.3974 62.7778 64.2956 62.7778H58.6289ZM69.2082 62.9167C68.4212 62.9167 67.7453 62.7825 67.1804 62.5139C66.6156 62.2362 66.1804 61.8149 65.8749 61.2501C65.5693 60.676 65.398 59.9584 65.361 59.0973C65.3517 58.6899 65.3471 58.301 65.3471 57.9306C65.3471 57.551 65.3517 57.1575 65.361 56.7501C65.398 55.8982 65.574 55.1899 65.8888 54.6251C66.2128 54.051 66.6573 53.6251 67.2221 53.3473C67.7962 53.0602 68.4582 52.9167 69.2082 52.9167C69.9675 52.9167 70.6295 53.0602 71.1943 53.3473C71.7684 53.6251 72.2175 54.051 72.5416 54.6251C72.8656 55.1899 73.0416 55.8982 73.0693 56.7501C73.0878 57.1575 73.0971 57.551 73.0971 57.9306C73.0971 58.301 73.0878 58.6899 73.0693 59.0973C73.0416 59.9584 72.8703 60.676 72.5554 61.2501C72.2499 61.8149 71.8147 62.2362 71.2499 62.5139C70.6851 62.7825 70.0045 62.9167 69.2082 62.9167ZM69.2082 61.7362C69.9212 61.7362 70.4999 61.5232 70.9443 61.0973C71.398 60.6714 71.6434 59.9815 71.6804 59.0278C71.699 58.6112 71.7082 58.2408 71.7082 57.9167C71.7082 57.5834 71.699 57.213 71.6804 56.8056C71.6619 56.1667 71.5416 55.6482 71.3193 55.2501C71.1064 54.8519 70.8193 54.5602 70.4582 54.3751C70.0971 54.1899 69.6804 54.0973 69.2082 54.0973C68.7545 54.0973 68.3471 54.1899 67.986 54.3751C67.6249 54.5602 67.3332 54.8519 67.111 55.2501C66.898 55.6482 66.7777 56.1667 66.7499 56.8056C66.7406 57.213 66.736 57.5834 66.736 57.9167C66.736 58.2408 66.7406 58.6112 66.7499 59.0278C66.7869 59.9815 67.0323 60.6714 67.486 61.0973C67.9397 61.5232 68.5138 61.7362 69.2082 61.7362ZM78.3715 62.9167C77.5567 62.9167 76.8623 62.7639 76.2882 62.4584C75.7234 62.1528 75.2882 61.7223 74.9826 61.1667C74.6863 60.6112 74.5197 59.9584 74.4826 59.2084C74.4734 58.801 74.4687 58.3704 74.4687 57.9167C74.4687 57.4538 74.4734 57.0139 74.4826 56.5973C74.5197 55.8473 74.6863 55.1991 74.9826 54.6528C75.2882 54.1065 75.728 53.6806 76.3021 53.3751C76.8762 53.0695 77.566 52.9167 78.3715 52.9167C79.0289 52.9167 79.5984 53.0093 80.0799 53.1945C80.5613 53.3797 80.9549 53.6158 81.2604 53.9028C81.5752 54.1806 81.8067 54.4723 81.9549 54.7778C82.1123 55.0834 82.1956 55.3519 82.2049 55.5834C82.2141 55.6667 82.191 55.7362 82.1354 55.7917C82.0799 55.838 82.0058 55.8612 81.9132 55.8612H81.0937C81.0012 55.8612 80.9317 55.8426 80.8854 55.8056C80.8484 55.7686 80.8113 55.7038 80.7743 55.6112C80.691 55.3704 80.5521 55.1343 80.3576 54.9028C80.1725 54.6713 79.9178 54.4815 79.5937 54.3334C79.2789 54.176 78.8715 54.0973 78.3715 54.0973C77.64 54.0973 77.0475 54.2963 76.5937 54.6945C76.1493 55.0926 75.9086 55.7501 75.8715 56.6667C75.8437 57.4908 75.8437 58.3149 75.8715 59.1389C75.9086 60.0649 76.1539 60.7315 76.6076 61.1389C77.0613 61.5371 77.6539 61.7362 78.3854 61.7362C78.8762 61.7362 79.3113 61.6482 79.691 61.4723C80.0799 61.2871 80.3854 61.0047 80.6076 60.6251C80.8299 60.2454 80.941 59.7639 80.941 59.1806V58.5973H78.8576C78.765 58.5973 78.6863 58.5695 78.6215 58.5139C78.566 58.4491 78.5382 58.3658 78.5382 58.2639V57.8195C78.5382 57.7176 78.566 57.6389 78.6215 57.5834C78.6863 57.5186 78.765 57.4862 78.8576 57.4862H81.9965C82.0984 57.4862 82.1771 57.5186 82.2326 57.5834C82.2882 57.6389 82.316 57.7176 82.316 57.8195V59.1528C82.316 59.9121 82.1586 60.5741 81.8437 61.1389C81.5382 61.7038 81.0891 62.1436 80.4965 62.4584C79.9039 62.7639 79.1956 62.9167 78.3715 62.9167ZM84.3391 62.7778C84.2372 62.7778 84.1585 62.7501 84.103 62.6945C84.0474 62.6297 84.0196 62.551 84.0196 62.4584V53.3751C84.0196 53.2825 84.0474 53.2084 84.103 53.1528C84.1585 53.088 84.2372 53.0556 84.3391 53.0556H85.0752C85.1678 53.0556 85.2419 53.088 85.2974 53.1528C85.3622 53.2084 85.3946 53.2825 85.3946 53.3751V62.4584C85.3946 62.551 85.3622 62.6297 85.2974 62.6945C85.2419 62.7501 85.1678 62.7778 85.0752 62.7778H84.3391ZM90.6646 62.9167C89.859 62.9167 89.1831 62.7964 88.6368 62.5556C88.0905 62.3056 87.6692 61.9862 87.3729 61.5973C87.0859 61.1991 86.9331 60.7778 86.9146 60.3334C86.9146 60.2593 86.9424 60.1945 86.9979 60.1389C87.0627 60.0741 87.1368 60.0417 87.2202 60.0417H87.9285C88.0396 60.0417 88.1229 60.0695 88.1785 60.1251C88.234 60.1806 88.2711 60.2454 88.2896 60.3195C88.3359 60.5417 88.447 60.7639 88.6229 60.9862C88.8081 61.1991 89.0628 61.3797 89.3868 61.5278C89.7202 61.6667 90.1461 61.7362 90.6646 61.7362C91.4609 61.7362 92.0442 61.5973 92.4146 61.3195C92.7942 61.0325 92.984 60.6528 92.984 60.1806C92.984 59.8565 92.8822 59.5973 92.6785 59.4028C92.484 59.1991 92.1831 59.0186 91.7757 58.8612C91.3683 58.7038 90.8405 58.5325 90.1924 58.3473C89.5165 58.1528 88.9563 57.9399 88.5118 57.7084C88.0674 57.4769 87.734 57.1899 87.5118 56.8473C87.2989 56.5047 87.1924 56.0695 87.1924 55.5417C87.1924 55.0417 87.3266 54.5973 87.5952 54.2084C87.8637 53.8102 88.2479 53.4954 88.7479 53.2639C89.2572 53.0325 89.8729 52.9167 90.5952 52.9167C91.1692 52.9167 91.6692 52.9954 92.0952 53.1528C92.5303 53.301 92.8915 53.5047 93.1785 53.7639C93.4655 54.0139 93.6831 54.2871 93.8313 54.5834C93.9794 54.8704 94.0581 55.1528 94.0674 55.4306C94.0674 55.4954 94.0442 55.5602 93.9979 55.6251C93.9516 55.6806 93.8776 55.7084 93.7757 55.7084H93.0396C92.9748 55.7084 92.9053 55.6899 92.8313 55.6528C92.7665 55.6158 92.7155 55.5463 92.6785 55.4445C92.6229 55.0649 92.41 54.7454 92.0396 54.4862C91.6692 54.2269 91.1878 54.0973 90.5952 54.0973C89.9933 54.0973 89.5026 54.213 89.1229 54.4445C88.7526 54.676 88.5674 55.0371 88.5674 55.5278C88.5674 55.8426 88.6553 56.1065 88.8313 56.3195C89.0072 56.5232 89.285 56.7038 89.6646 56.8612C90.0442 57.0186 90.5396 57.1852 91.1507 57.3612C91.8915 57.5649 92.4979 57.7825 92.9702 58.0139C93.4424 58.2362 93.7896 58.5186 94.0118 58.8612C94.2433 59.1945 94.359 59.6251 94.359 60.1528C94.359 60.7362 94.2063 61.2362 93.9007 61.6528C93.5952 62.0602 93.1646 62.3751 92.609 62.5973C92.0628 62.8102 91.4146 62.9167 90.6646 62.9167ZM98.2376 62.7778C98.145 62.7778 98.0663 62.7501 98.0015 62.6945C97.946 62.6297 97.9182 62.551 97.9182 62.4584V54.2917H95.2515C95.1589 54.2917 95.0802 54.2639 95.0154 54.2084C94.9599 54.1436 94.9321 54.0649 94.9321 53.9723V53.3889C94.9321 53.2871 94.9599 53.2084 95.0154 53.1528C95.0802 53.088 95.1589 53.0556 95.2515 53.0556H101.946C102.048 53.0556 102.127 53.088 102.182 53.1528C102.247 53.2084 102.279 53.2871 102.279 53.3889V53.9723C102.279 54.0649 102.247 54.1436 102.182 54.2084C102.127 54.2639 102.048 54.2917 101.946 54.2917H99.2932V62.4584C99.2932 62.551 99.2608 62.6297 99.196 62.6945C99.1404 62.7501 99.0617 62.7778 98.9599 62.7778H98.2376ZM103.878 62.7778C103.776 62.7778 103.697 62.7501 103.642 62.6945C103.586 62.6297 103.558 62.551 103.558 62.4584V53.3751C103.558 53.2825 103.586 53.2084 103.642 53.1528C103.697 53.088 103.776 53.0556 103.878 53.0556H104.614C104.707 53.0556 104.781 53.088 104.836 53.1528C104.901 53.2084 104.933 53.2825 104.933 53.3751V62.4584C104.933 62.551 104.901 62.6297 104.836 62.6945C104.781 62.7501 104.707 62.7778 104.614 62.7778H103.878ZM110.578 62.9167C109.727 62.9167 109.018 62.7593 108.453 62.4445C107.898 62.1297 107.477 61.6899 107.19 61.1251C106.903 60.5602 106.745 59.9028 106.717 59.1528C106.708 58.7732 106.703 58.3658 106.703 57.9306C106.703 57.4954 106.708 57.0788 106.717 56.6806C106.745 55.9306 106.903 55.2732 107.19 54.7084C107.477 54.1436 107.898 53.7038 108.453 53.3889C109.018 53.0741 109.727 52.9167 110.578 52.9167C111.217 52.9167 111.778 53.0047 112.259 53.1806C112.74 53.3565 113.139 53.5926 113.453 53.8889C113.778 54.1852 114.023 54.5186 114.19 54.8889C114.356 55.2501 114.449 55.6251 114.467 56.0139C114.477 56.0973 114.449 56.1667 114.384 56.2223C114.328 56.2778 114.259 56.3056 114.176 56.3056H113.412C113.328 56.3056 113.254 56.2825 113.19 56.2362C113.134 56.1899 113.092 56.1065 113.065 55.9862C112.907 55.2639 112.611 54.7686 112.176 54.5001C111.75 54.2315 111.213 54.0973 110.565 54.0973C109.824 54.0973 109.236 54.3102 108.801 54.7362C108.365 55.1528 108.129 55.8241 108.092 56.7501C108.065 57.5093 108.065 58.2871 108.092 59.0834C108.129 60.0093 108.365 60.6852 108.801 61.1112C109.236 61.5278 109.824 61.7362 110.565 61.7362C111.213 61.7362 111.75 61.6019 112.176 61.3334C112.611 61.0649 112.907 60.5695 113.065 59.8473C113.092 59.7269 113.134 59.6436 113.19 59.5973C113.254 59.551 113.328 59.5278 113.412 59.5278H114.176C114.259 59.5278 114.328 59.5556 114.384 59.6112C114.449 59.6667 114.477 59.7362 114.467 59.8195C114.449 60.2084 114.356 60.588 114.19 60.9584C114.023 61.3195 113.778 61.6482 113.453 61.9445C113.139 62.2408 112.74 62.4769 112.259 62.6528C111.778 62.8288 111.217 62.9167 110.578 62.9167ZM119.176 62.9167C118.37 62.9167 117.694 62.7964 117.148 62.5556C116.602 62.3056 116.181 61.9862 115.884 61.5973C115.597 61.1991 115.444 60.7778 115.426 60.3334C115.426 60.2593 115.454 60.1945 115.509 60.1389C115.574 60.0741 115.648 60.0417 115.731 60.0417H116.44C116.551 60.0417 116.634 60.0695 116.69 60.1251C116.745 60.1806 116.782 60.2454 116.801 60.3195C116.847 60.5417 116.958 60.7639 117.134 60.9862C117.319 61.1991 117.574 61.3797 117.898 61.5278C118.231 61.6667 118.657 61.7362 119.176 61.7362C119.972 61.7362 120.556 61.5973 120.926 61.3195C121.306 61.0325 121.495 60.6528 121.495 60.1806C121.495 59.8565 121.393 59.5973 121.19 59.4028C120.995 59.1991 120.694 59.0186 120.287 58.8612C119.88 58.7038 119.352 58.5325 118.704 58.3473C118.028 58.1528 117.468 57.9399 117.023 57.7084C116.579 57.4769 116.245 57.1899 116.023 56.8473C115.81 56.5047 115.704 56.0695 115.704 55.5417C115.704 55.0417 115.838 54.5973 116.106 54.2084C116.375 53.8102 116.759 53.4954 117.259 53.2639C117.768 53.0325 118.384 52.9167 119.106 52.9167C119.681 52.9167 120.181 52.9954 120.606 53.1528C121.042 53.301 121.403 53.5047 121.69 53.7639C121.977 54.0139 122.194 54.2871 122.343 54.5834C122.491 54.8704 122.569 55.1528 122.579 55.4306C122.579 55.4954 122.556 55.5602 122.509 55.6251C122.463 55.6806 122.389 55.7084 122.287 55.7084H121.551C121.486 55.7084 121.417 55.6899 121.343 55.6528C121.278 55.6158 121.227 55.5463 121.19 55.4445C121.134 55.0649 120.921 54.7454 120.551 54.4862C120.181 54.2269 119.699 54.0973 119.106 54.0973C118.505 54.0973 118.014 54.213 117.634 54.4445C117.264 54.676 117.079 55.0371 117.079 55.5278C117.079 55.8426 117.167 56.1065 117.343 56.3195C117.518 56.5232 117.796 56.7038 118.176 56.8612C118.556 57.0186 119.051 57.1852 119.662 57.3612C120.403 57.5649 121.009 57.7825 121.481 58.0139C121.954 58.2362 122.301 58.5186 122.523 58.8612C122.755 59.1945 122.87 59.6251 122.87 60.1528C122.87 60.7362 122.718 61.2362 122.412 61.6528C122.106 62.0602 121.676 62.3751 121.12 62.5973C120.574 62.8102 119.926 62.9167 119.176 62.9167Z" fill="white"/>
<defs>
<clipPath id="clip0_101_509">
<rect width="66.6667" height="75" fill="white" transform="translate(133.334)"/>
</clipPath>
</defs>
</svg>
