<svg width="110" height="21" viewBox="0 0 110 21" fill="none" xmlns="http://www.w3.org/2000/svg">
<path fill-rule="evenodd" clip-rule="evenodd" d="M0.343855 4.407C1.82581 4.40223 3.30758 4.40241 4.78953 4.38756C5.04291 4.38508 5.0965 4.48566 5.08469 4.70095C5.07089 4.94983 5.08142 5.20012 5.08142 5.46472C5.137 5.45465 5.18986 5.46083 5.21619 5.43803C8.34884 2.73557 13.1233 3.81433 14.6159 7.6339C15.6794 10.3554 15.4791 12.9955 13.4578 15.2941C11.3256 17.7187 7.27175 17.8346 5.24889 16.2687C5.21747 16.2443 5.17169 16.2376 5.06635 16.1973C5.06635 17.6524 5.06635 19.0721 5.06635 20.492C3.63143 20.492 2.19652 20.4819 0.761795 20.4998C0.439939 20.5037 0.332594 20.4577 0.333502 20.1051C0.348396 14.8723 0.343855 9.63975 0.343855 4.407ZM4.96209 10.6073C4.94193 12.1108 6.01157 13.196 7.54057 13.2228C8.99873 13.2485 10.1283 12.1951 10.1519 10.7878C10.179 9.16021 9.17509 8.06837 7.63029 8.04539C6.06679 8.02206 4.98298 9.06282 4.96209 10.6073Z" fill="white"/>
<path fill-rule="evenodd" clip-rule="evenodd" d="M109.324 16.9568C107.996 16.8715 106.666 16.9432 105.337 16.9199C105.201 16.9176 105.063 16.9059 104.929 16.9227C104.635 16.9597 104.562 16.8246 104.583 16.5653C104.602 16.3196 104.587 16.0713 104.587 15.7625C104.317 15.9803 104.1 16.1754 103.864 16.3435C101.643 17.9181 98.121 17.5483 96.2358 15.5472C93.8791 13.0452 93.8904 8.49542 96.2071 5.96937C98.3076 3.67946 102.326 3.39418 104.428 5.02247C104.459 5.04598 104.506 5.04881 104.587 5.07479C104.587 3.96581 104.604 2.88193 104.576 1.79929C104.568 1.46839 104.698 1.37613 104.993 1.32275C106.254 1.0942 107.513 0.848149 108.772 0.609172C108.845 0.595385 108.925 0.601041 108.961 0.518142C109.272 0.451327 109.334 0.569048 109.333 0.871658C109.321 6.23345 109.324 11.5951 109.324 16.9568ZM99.5163 10.6222C99.5151 12.1607 100.563 13.232 102.077 13.2398C103.625 13.2481 104.7 12.1837 104.706 10.6381C104.712 9.13387 103.634 8.08128 102.089 8.08198C100.56 8.08269 99.5174 9.11266 99.5163 10.6222Z" fill="white"/>
<path fill-rule="evenodd" clip-rule="evenodd" d="M76.2997 3.95963C77.7447 3.98119 78.959 4.17828 80.1153 4.6603C82.8396 5.79561 84.2725 8.21526 84.0355 11.0966C83.7521 14.5416 81.3437 16.5413 78.1678 17.1237C76.2811 17.47 74.4283 17.3273 72.6535 16.5918C69.8489 15.43 68.6129 13.1111 68.76 10.3206C68.97 6.34109 71.9513 4.47134 75.1381 4.05702C75.5866 3.99869 76.0407 3.98066 76.2997 3.95963ZM73.7777 10.6446C73.778 12.1439 74.8958 13.2446 76.3961 13.2232C77.9184 13.2014 78.9748 12.1526 78.9762 10.6616C78.9777 9.10718 77.9109 8.03921 76.3627 8.04522C74.8379 8.05123 73.777 9.11761 73.7777 10.6446Z" fill="white"/>
<path fill-rule="evenodd" clip-rule="evenodd" d="M23.7158 3.96192C25.6971 4.00983 27.5489 4.44536 29.1087 5.71431C30.4074 6.77079 31.074 8.15216 31.2197 9.77586C31.3861 11.6304 31.0351 13.3557 29.7573 14.8113C28.6625 16.0584 27.2326 16.7447 25.6048 17.0769C23.675 17.4707 21.7838 17.3523 19.9538 16.6231C16.9173 15.4134 15.7147 12.8253 16.0087 9.92275C16.338 6.67481 18.684 4.73524 21.7769 4.14805C22.4162 4.02662 23.0623 3.96016 23.7158 3.96192ZM23.637 8.04539C22.0893 8.03338 21.0073 9.08579 20.9764 10.6337C20.9474 12.0882 22.0942 13.2191 23.5998 13.2202C25.0977 13.2212 26.1922 12.1531 26.2091 10.6741C26.2262 9.1671 25.14 8.05706 23.637 8.04539Z" fill="white"/>
<path fill-rule="evenodd" clip-rule="evenodd" d="M59.2186 5.40586C60.7796 3.92357 62.6152 3.68388 64.5848 4.19825C66.3708 4.66471 67.2087 5.96955 67.5405 7.64999C67.6294 8.09948 67.6568 8.55375 67.6562 9.01156C67.6528 11.5005 67.6486 13.9892 67.6615 16.478C67.6633 16.8094 67.5952 16.9358 67.22 16.9293C65.9191 16.9058 64.6171 16.9089 63.3161 16.9279C62.9639 16.933 62.8533 16.8442 62.8551 16.4877C62.8647 14.4119 62.8491 12.3357 62.8362 10.2596C62.8349 10.0551 62.8113 9.84798 62.7719 9.647C62.5514 8.52759 62.0908 8.15516 60.9928 8.19529C59.9362 8.23382 59.2907 8.79131 59.1975 9.8181C59.0924 10.978 59.1679 12.1434 59.1574 13.3063C59.1476 14.3811 59.1441 15.4563 59.1621 16.531C59.1674 16.845 59.0628 16.9303 58.7493 16.9266C57.4177 16.9119 56.0858 16.913 54.7542 16.9263C54.4623 16.9291 54.3717 16.855 54.3724 16.5583C54.383 12.6261 54.3839 8.6941 54.3715 4.76229C54.3706 4.43405 54.4887 4.38279 54.7867 4.38597C56.0881 4.40046 57.3899 4.40612 58.6908 4.38349C59.0711 4.37678 59.2072 4.48318 59.1619 4.85049C59.1416 5.01646 59.116 5.19764 59.2186 5.40586Z" fill="white"/>
<path fill-rule="evenodd" clip-rule="evenodd" d="M38.6169 3.97324C40.198 4.02591 41.6404 4.14487 43.0613 4.46922C43.3599 4.53745 43.4171 4.62707 43.3425 4.91253C43.1006 5.83804 42.8735 6.76814 42.6781 7.7039C42.6051 8.05406 42.4736 8.06448 42.1621 7.97381C40.6899 7.5457 39.1952 7.27066 37.6479 7.4902C37.5293 7.50699 37.4127 7.5404 37.2973 7.57363C37.0135 7.65494 36.7915 7.81685 36.7948 8.12246C36.7982 8.43886 37.0503 8.57638 37.3302 8.63806C38.3476 8.86237 39.3956 8.91964 40.4078 9.17506C40.9502 9.31187 41.4827 9.47237 41.9895 9.70692C43.3923 10.356 44.0169 11.4181 43.9706 12.9271C43.9157 14.7143 42.9758 15.8624 41.3431 16.5468C40.0269 17.0981 38.6284 17.2368 37.2196 17.2671C35.4567 17.3049 33.7233 17.077 32.0231 16.6099C31.7461 16.5337 31.6709 16.449 31.7533 16.16C32.032 15.1831 32.2866 14.1992 32.5244 13.212C32.6012 12.8932 32.7182 12.8702 33.013 12.9807C34.5797 13.5673 36.1934 13.9113 37.8869 13.7883C38.116 13.7715 38.3385 13.7319 38.5463 13.6414C38.78 13.5399 38.945 13.3837 38.9422 13.1053C38.9395 12.8246 38.7713 12.6765 38.529 12.5861C38.0014 12.3892 37.441 12.3459 36.8881 12.275C35.9269 12.152 34.9766 11.9836 34.0733 11.6301C31.4625 10.6082 30.9194 7.33836 33.0598 5.5349C34.2355 4.54434 35.6712 4.22388 37.1611 4.06374C37.6864 4.00753 38.2168 3.9971 38.6169 3.97324Z" fill="white"/>
<path fill-rule="evenodd" clip-rule="evenodd" d="M44.8441 9.22685C44.8441 6.81109 44.8517 4.39551 44.8355 1.97976C44.8332 1.64462 44.9254 1.56526 45.2615 1.57038C46.5779 1.59018 47.8953 1.59283 49.2116 1.56915C49.5733 1.56261 49.6368 1.68475 49.6267 1.99708C49.6047 2.67406 49.6354 3.35246 49.6131 4.02945C49.6029 4.33294 49.7182 4.40028 50.0056 4.39728C51.2013 4.38455 52.3971 4.39905 53.5928 4.3872C53.9078 4.38402 54.007 4.43175 53.831 4.74196C53.21 5.83592 52.6015 6.93677 52.0006 8.04151C51.8924 8.24036 51.7611 8.307 51.5364 8.30028C51.0372 8.28543 50.5361 8.31778 50.0384 8.28826C49.6951 8.26793 49.61 8.37293 49.6118 8.70364C49.6265 11.2518 49.62 13.8001 49.6198 16.3484C49.6198 16.9194 49.6196 16.9195 49.0378 16.9197C47.7967 16.9197 46.5552 16.9049 45.3145 16.9287C44.942 16.936 44.8321 16.8474 44.8348 16.4738C44.8526 14.0584 44.8441 11.6426 44.8441 9.22685Z" fill="white"/>
<path fill-rule="evenodd" clip-rule="evenodd" d="M89.9046 5.73375C90.9922 4.30925 92.436 4.1203 93.9921 4.23678C94.2751 4.25782 94.4117 4.36352 94.3992 4.67673C94.3518 5.86703 94.3265 7.0582 94.3051 8.2492C94.3002 8.53148 94.209 8.60342 93.9216 8.53113C93.3775 8.39432 92.8191 8.35207 92.2568 8.39856C90.6873 8.52848 89.9132 9.33449 89.9068 10.8679C89.899 12.7228 89.8946 14.5777 89.9132 16.4322C89.917 16.8022 89.8489 16.9408 89.4258 16.9307C88.1409 16.8999 86.8546 16.9123 85.569 16.9248C85.2769 16.9277 85.1433 16.8844 85.1443 16.5492C85.1563 12.6188 85.1549 8.68826 85.1462 4.75804C85.1454 4.47435 85.2199 4.38208 85.5218 4.38544C86.8677 4.40064 88.2143 4.40028 89.5602 4.38561C89.8494 4.38226 89.9281 4.47523 89.9093 4.73895C89.8885 5.03025 89.9046 5.32402 89.9046 5.73375Z" fill="white"/>
</svg>
